<?xml version="1.0" encoding="utf-8"?>
<!-- Generator: Adobe Illustrator 26.0.1, SVG Export Plug-In . SVG Version: 6.00 Build 0)  -->
<svg version="1.1" id="Layer_1" xmlns="http://www.w3.org/2000/svg" xmlns:xlink="http://www.w3.org/1999/xlink" x="0px" y="0px"
	 viewBox="0 0 920.58 873.7" style="enable-background:new 0 0 920.58 873.7;" xml:space="preserve">
<style type="text/css">
	.st0{fill:#FFFFFF;stroke:#000000;stroke-width:17;stroke-miterlimit:10;}
	.st1{fill:#FFFFFF;}
	.st2{fill:none;stroke:#000000;stroke-width:22.2345;stroke-linecap:round;stroke-linejoin:round;stroke-miterlimit:10;}
	.st3{font-family:'CenturyGothic-Italic';}
	.st4{font-size:35.6485px;}
	.st5{letter-spacing:5;}
	.st6{fill:none;stroke:#000000;stroke-width:3;stroke-miterlimit:10;}
	.st7{fill:#FFFFFF;stroke:#000000;stroke-width:3;stroke-miterlimit:10;}
	.st8{fill:#FFFFFF;stroke:#000000;stroke-width:0.6677;stroke-miterlimit:10;}
	.st9{stroke:#000000;stroke-width:0.209;stroke-miterlimit:10;}
	.st10{stroke:#000000;stroke-width:0.6677;stroke-linejoin:round;stroke-miterlimit:10;}
	.st11{fill:#FFFFFF;stroke:#000000;stroke-width:0.6664;stroke-miterlimit:10;}
	.st12{fill:none;stroke:#000000;stroke-width:0.6664;stroke-miterlimit:10;}
	.st13{fill:none;stroke:#000000;stroke-width:2.6657;stroke-linecap:round;stroke-miterlimit:10;}
	.st14{stroke:#000000;stroke-width:0.6664;stroke-miterlimit:10;}
</style>
<circle class="st0" cx="460.29" cy="436.85" r="411"/>
<path d="M765.95,280.25h-47.54l-25.59,152.96h-43.47l25.59-152.96h-47.58l5.95-35.82h138.72L765.95,280.25z"/>
<path d="M484.85,244.43l-17.57,105.38c-3.5,20.47-6.39,34.3-8.64,41.49c-2.26,7.19-6.34,14.22-12.24,21.09
	c-5.9,6.87-14.06,12.33-24.47,16.39c-10.42,4.06-22.81,6.09-37.19,6.09c-22.95,0-40.35-5.07-52.19-15.21
	c-11.84-10.14-17.77-23.24-17.77-39.28c0-5.53,0.55-11.8,1.66-18.81l19.64-117.14h46.42l-18.34,110.23
	c-1.29,7.74-1.94,14.52-1.94,20.33c0,8.94,3.11,15.19,9.33,18.74c6.22,3.55,13.12,5.32,20.68,5.32c8.67,0,15.7-1.73,21.09-5.19
	c5.39-3.46,8.8-7.51,10.23-12.17c1.43-4.65,3.8-16.94,7.12-36.86l16.87-100.41H484.85z"/>
<g>
	<g>
		<polygon class="st1" points="340.27,669.24 252.28,718.82 197.13,718.32 197.66,698.24 191.08,665.47 190.96,642.4 189.19,626.68 
			175.68,622.52 165.76,612.15 167.47,554.13 165.38,516.82 161.25,478.28 326.35,420.88 397.25,517.87 374.29,663.71 		"/>
		<g>
			<polygon points="135.91,500.07 167.72,525.06 166.75,491.57 			"/>
		</g>
		<g>
			<path d="M208.95,647c8.88-6.75,18.62-9.33,29.57-6.12c-5.3,2.81-12.68,4.07-10.61,12.7c0.35,1.44,3.93,3.65,4.71,3.2
				c6.34-3.6,7.37-9.45,5.66-16.09c21.45-1.33,21.21-24.21,33.98-34.16c-5.02-6.09-4.73-16.39-14.89-18.52
				c-2.07-0.43-5.91,0.34-5.39-3.38c0.12-0.85,4.44-1.33,6.88-1.59c13.88-1.49,20.04,11.7,30.72,16.34
				c1.71,0.74,3.51,3.36,4.63,3.02c14.6-4.4,32.1-1.64,43.1-14.47c3.62-4.23,6.73-6.91,11.6-7.66c13.06-2.01,23.31-9.54,33.71-16.74
				c1.28-0.89,2.86-3.78,2.43-4.35c-14.64-19.46,3.7-26.26,13.92-35.69c12.36-11.4,22.41-22.93,16.29-41.75
				c-1.85-5.7,2.04-13.55,6.85-15.02c5.5-1.68,7.08,5.71,7.89,10.61c2.86,17.19,5.86,34.37,8.03,51.65
				c1.81,14.39-0.99,27.89-11.76,38.64c-11.67,11.65-17.21,27.23-26.31,40.52c-3.14,4.58-6.55,6.99-12.71,5.66
				c-20.76-4.46-31.94,5.31-28.74,27.06c2.78,18.89-3.64,30.31-20.62,38.31c-26.37,12.44-51.81,26.89-78.32,39.02
				c-16.1,7.36-33.94,7.36-51.5,5.51c-10.49-1.11-15.08-8.36-12.97-17.35c3.7-15.75-1.93-28.98-6.74-43.2
				c-2.4-7.1,0.33-16.12,1.48-24.17c1.18-8.22-1.58-11.84-9.8-9.74c-12.24,3.13-15.26-2.24-16.75-13.78
				c-1.66-12.85-1.9-24.8,2.22-37.2c2.94-8.84,1.82-17.85-2.18-26.76c-4.26-9.5-4.91-19.62,0.01-29.43
				c6.21-12.38,1.79-25.31,0.06-37.36c-3.44-23.99,9.96-40.89,21.38-58.95c-4.83,10.02-9.89,19.94-14.43,30.1
				c-7.04,15.75-7.01,31.28,1.93,46.55c0.94,1.6-0.84,4.75-1.26,7.2c-0.66,3.82-4.72,8.63-0.16,11.19
				c3.36,1.89,10.2,2.45,12.55,0.33c6.78-6.12,14.65-4.91,18.01,0.15c3.13,4.71,1.06,13.03,0.89,19.75
				c-0.2,8.34-18.46,18.1,4.42,24.76c10.95,3.19,19.16,16,26.08,26.82c2.4,3.75,5.71,7.57,1.2,11.72c-4.71,4.33-8.68-0.3-11.55-2.66
				c-3.48-2.85-5.14-6.78-8.07,0.29c-0.68,1.64-3.73,3.79-6.51,1.45c-7.4-6.25-8.08,0-10.42,5.99
				c3.11-18.24-10.18-26.29-20.18-36.36c-2.48-2.49-4.57-5.37-6.84-8.08c-0.51,3.74-1.06,7.47-1.51,11.21
				c-1.45,12.02-10.11,23.78-1.36,36.16c1.56,2.2,1.86,10.03,6.13,1.36c1.61-3.28,5.44-3.38,7.13-0.86
				c4.84,7.24,18.87,8.3,15.26,20.77c-1.32,4.57-3.14,8.05,0.49,11.97c-0.38,0.87-0.76,1.73-1.17,2.57
				c-1.66,3.36-6.5,6.13-2.11,10.61c0.94,0.96,3.32,2.19,3.36,2.12c2.66-3.78,0.99-7.8,0.46-11.77c-0.17-1.25-0.45-2.48-0.69-3.73
				c4.47-1,9.36-4.96,12.7,1.82c-8.1-4.44-6.12,2.85-7.23,6.31c-1.15,3.6-0.26,6.95,4.05,6.48c5.58-0.61,2.96-5.09,2.87-8.27
				C208.79,650.15,208.91,648.57,208.95,647z M295.31,663.15c-8.64,0.21-17.77-0.73-22.15,9.45l0.04,0.01
				c-4.7-0.31-6.29,7.7-12.06,4.52c2.2-1.87,4.41-3.73,8.55-7.24c-7.18,1.8-11.84,3.13-16.57,4.13c-15.89,3.35-31.69,7.57-48.2,5.84
				c-1.77-4.07-1.79-9.04-6.09-11.76c-0.11-0.07-1.53,1.18-1.49,1.74c0.37,4.95,1.9,9.12,7.72,9.85c-1.95,1.18-3.9,2.36-5.85,3.53
				c2.59,1.49,5.19,2.99,7.78,4.48c0,0-0.02-0.05-0.02-0.05c-2.95,5.74-6.24,11.34-8.73,17.27c-1.39,3.32-4.57,7.23,3.48,8.6
				c39.74,6.76,72.71-11.49,105.89-28.23c11.63-5.86,22.63-19.82,32.25-21.39c18.65-3.05,13.44-14.45,15.36-23.98
				c0.51-2.54,0.69-7.03-3.4-7.92c-3.73-0.81-5.22,2.46-6.98,5.23c-11.52,18.22-27.81,27.41-49.69,25.75L295.31,663.15z
				 M224.2,650.81c-0.18-3.87-1.15-7.43-5.19-6.47c-4.82,1.15-6.33,5.5-6.29,10.19c0.03,3.19,1.76,4.68,4.85,3.75
				C221.42,657.12,225.86,656.18,224.2,650.81z M245.46,655.09c3.34-1.94,4.85-5.29,4.97-9.25c0.06-2.14-1.13-3.88-3.53-2.98
				c-4.2,1.57-5.05,5.2-5.11,9.25C241.75,654.53,242.55,655.72,245.46,655.09z M248.33,662c-3.23,0.92-5.91,1.81-5.62,4.84
				c0.1,1.12,3.38,3.04,3.52,2.9c1.88-1.86,3.46-4.03,5.12-6.12C250.18,662.99,249,662.36,248.33,662z M207.68,668.12
				c-0.44,0.73-1.11,1.85-1.79,2.97c2.76,1.38,1.3,6.62,5.65,6.28c0.58-0.05,1.64-2.52,1.34-3.51
				C212.16,671.51,212.97,667.64,207.68,668.12z M238.43,671.29c-0.96-6.46-4.25-5.87-6.77-6.18c-1.34-0.17-3.62,0.19-2.11,2.49
				c1.48,2.25,3.24,4.56,5.45,5.95C235.66,673.97,238.2,671.45,238.43,671.29z M271.39,625.79c-1.98-0.86-3.16-1.36-4.33-1.87
				c-1.04,2.5-2.19,4.97-2.98,7.55c-0.1,0.32,1.67,1.21,2.57,1.84C268.07,631.06,269.49,628.8,271.39,625.79z M221.1,677.18
				c1.15-3.44,2.1-5.62,2.57-7.91c0.55-2.65-1.22-3.11-3.37-2.79c-1.88,0.28-4.13,0.62-3.24,3.24
				C217.81,671.96,219.29,673.93,221.1,677.18z M255.22,653.19c1.7-4.67,2.72-7.07,3.41-9.56c0.33-1.2,1.22-3.94-1.18-3.11
				c-1.89,0.65-3.47,3.38-4.29,5.53C252.69,647.28,253.98,649.19,255.22,653.19z M348.61,601.65c2.35-4.38,3.69-6.45,4.52-8.71
				c0.22-0.58-1.14-1.74-1.77-2.64c-1.12,2.07-2.36,4.1-3.3,6.25C347.75,597.26,348.2,598.29,348.61,601.65z M258.03,667.72
				c1.63-2.66,2.84-4.12,3.35-5.8c0.13-0.44-1.83-2.1-2.94-2.22c-2.25-0.24-3.28,1.41-2.87,3.51
				C255.79,664.36,256.72,665.39,258.03,667.72z M265.6,649.4c1.15-2.89,2.13-4.81,2.59-6.85c0.16-0.72-1.22-2.56-1.48-2.48
				c-2.75,0.83-4.04,2.87-3.5,5.69C263.41,646.78,264.42,647.66,265.6,649.4z M280.16,656.29c2.7-0.11,4.53-0.43,3.85-2.59
				c-0.34-1.07-1.95-2.46-2.93-2.42c-1.09,0.05-2.11,1.57-3.16,2.45C278.82,654.75,279.71,655.78,280.16,656.29z"/>
			<path d="M304.8,542.69c-3.53,1.15-7.7,2.65-7.45,7.43c0.53,9.9-5.92,15.66-12.28,21.38c-6.38,5.73-12.32,7.82-19.31-0.41
				c-7.54-8.89-20.39-1.33-29.51-7.59c-1.78-1.22-4.2-1.26-5.52-3.83c-1.32-2.58-1.92-10.53-6.96-2.05
				c-0.06,0.1-3.49-1.59-5.16-2.72c-1.94-1.31-2.73-2.49-0.83-5.14c1.53-2.14,1.22-5.6,1.73-8.47c-5.15-0.8-1.77,5.84-5.52,6.15
				c-0.86-3.63-1.82-7.37-2.63-11.14c-1.11-5.17-8.1-9.6-1.01-15.8c7.96-6.96,18.96-10.73,26.84-7.99
				c9.27,3.22,18.06,1.68,26.75,2.53c15.33,1.5,24.04,15.07,38.19,17.68c1.31,0.24,2.42,1.54,3.62,2.35 M325.51,550.28
				c2.43,4.2,6.99-0.62,9.39,3.56c0.61,1.06,1-2.8,1.28-4.27c0.79-4.21-2.47-3.9-4.77-3.14
				C329.28,547.13,327.51,548.92,325.51,550.28z"/>
			<path d="M288.93,388.19c-23.98,6.17-49.1,7.29-73.06,14.4C238.97,391.89,264.12,391.23,288.93,388.19z"/>
			<path d="M191.46,597.57c-0.21,0.77-0.59,2.13-0.96,3.48c-3.79-2.71-7.58-5.42-11.37-8.13c1.64-1.38,3.18-3.79,4.94-3.96
				C189.46,588.45,190.8,592.48,191.46,597.57z"/>
			<path d="M362.4,483.84c-1.4,0.3-2.81,0.59-4.21,0.89c-2.94-4.49-0.01-6.49,3.62-7.6c1.42-0.43,3.3,0.66,4.98,1.06
				C365.33,480.08,363.86,481.96,362.4,483.84z"/>
			<path d="M375.98,470.32c-0.6-0.66-1.9-1.5-2.34-2.67c-1.43-3.75,1.53-4.3,3.98-4.34c1.93-0.03,3.88,0.96,5.83,1.5
				C381.17,466.5,378.89,468.18,375.98,470.32z"/>
			<path d="M202.08,618.88c-0.82,1.1-1.44,2.66-2.08,2.67c-3.67,0.03-5.42-2.79-6.87-5.56c-0.34-0.65,0.66-1.99,1.05-3.02
				C196.63,614.81,199.09,616.65,202.08,618.88z"/>
			<path d="M214.12,623.47c-1.88-3.01-3.2-4.3-3.46-5.77c-0.27-1.51,0.5-3.2,0.81-4.81c1.25,1.19,3.09,2.19,3.58,3.64
				C215.55,617.98,214.69,619.89,214.12,623.47z"/>
			<path d="M295.13,663c-1.27,13.57-17.5,14.69-21.67,25.9c-0.16,0.42-1.62,0.35-2.48,0.51c-0.2-1.12-0.72-2.29-0.54-3.34
				c0.8-4.5,1.81-8.97,2.74-13.45c0.01,0-0.04-0.02-0.04-0.02c7.38-3.15,14.76-6.3,22.15-9.45L295.13,663z"/>
			<path d="M250.31,698.32c-0.7-5.83-1.4-7.76-0.9-8.14c4.54-3.45-6.67-9.54,1.86-11.71c3.78-0.96,3.61,2.71,3.15,5.09
				C253.74,687.08,252.54,690.49,250.31,698.32z"/>
			<path d="M206.99,687.71c3.99-0.35,7.59,0.35,8.67,4.83c0.79,3.28-1.59,3.35-4.45,0c-1.39-1.63-2.82-3.24-4.24-4.87
				C206.97,687.66,206.99,687.71,206.99,687.71z"/>
		</g>
		<path class="st2" d="M389.98,679.62c-31.13-3.17-47.42-4.53-44.57-46.54c2.84-42,28.38-76.84,7.97-106.11
			s-95.15-32.11-124.95-32.47s-70.15,2.65-70.15,2.65l3.33,3.01"/>
		<g>
			<path class="st1" d="M388.71,684.28c-1.03,0-2.06-0.05-3.06-0.15c-26.75-2.72-37.49-10.37-34.76-50.68
				c0.98-14.45,4.76-28.07,8.42-41.25c6.77-24.4,13.17-47.44-1.43-68.38c-19.34-27.73-81.04-34.25-129.4-34.82
				c-0.73-0.01-1.48-0.01-2.25-0.01c-24.45,0-66.35,4.29-83.3,6.15c3.66-18.04,16.13-66.47,48.43-94.71
				c39.19-34.26,84.42-37.96,102.05-37.96c3.56,0,6.97,0.14,10.16,0.41c10.51,0.89,38.13,4.55,67.61,19.16
				c35.56,17.63,61.19,44.71,76.15,80.51c18.23,43.61,16.1,92.51,11.1,125.85c-4.92,32.81-13.51,57.43-15.24,62.19
				C439.16,655.33,413.54,684.28,388.71,684.28z"/>
			<path d="M293.43,356.96l0,11.01c0,0,0,0,0,0c3.4,0,6.66,0.13,9.69,0.39c10.2,0.87,37,4.41,65.63,18.6
				c34.34,17.02,59.08,43.16,73.52,77.7c7.77,18.58,12.41,39.74,13.78,62.89c1.12,18.78,0.1,38.88-3.01,59.77
				c-4.59,30.77-12.47,54.25-14.69,60.48c-8.35,9.77-30.46,30.98-49.65,30.98c-0.84,0-1.68-0.04-2.5-0.12
				c-13.55-1.38-21-4.18-24.91-9.37c-4.52-6-6.13-17.6-4.92-35.46c0.94-13.89,4.65-27.24,8.23-40.15c6.82-24.55,13.87-49.94-2.22-73
				c-16.6-23.81-61.63-36.32-133.84-37.18c-0.75-0.01-1.53-0.01-2.32-0.01c-21.57,0-56.42,3.29-76.26,5.37
				c5.02-20.93,17.63-60.33,45.03-84.28c37.79-33.03,81.42-36.6,98.42-36.6L293.43,356.96 M293.43,356.96
				c-26.32,0-69,7.26-105.67,39.32c-42.15,36.85-51.53,105.15-51.53,105.15s59.46-6.94,90.02-6.94c0.75,0,1.48,0,2.19,0.01
				c29.8,0.36,104.54,3.2,124.95,32.47c20.41,29.27-5.13,64.1-7.97,106.11c-2.84,42,8.56,53.35,39.69,56.52
				c1.2,0.12,2.41,0.18,3.61,0.18c29.93,0,59.33-36.41,59.33-36.41s40.7-106.11,4.39-192.96
				c-36.32-86.85-124.32-100.98-148.38-103.03C300.92,357.12,297.36,356.96,293.43,356.96L293.43,356.96z"/>
		</g>
		<ellipse transform="matrix(0.1089 -0.9941 0.9941 0.1089 -250.1466 954.5348)" cx="407.31" cy="616.79" rx="25.41" ry="11.12"/>
	</g>
	<circle cx="255.83" cy="476.39" r="7.94"/>
	<circle cx="168.35" cy="475.98" r="7.94"/>
</g>
<path d="M140.17,433.22l31.53-188.79h55.6c19.55,0,34.74,3.07,45.57,9.2c10.83,6.13,19.89,15.95,27.18,29.46
	c7.28,13.51,10.93,29.34,10.93,47.51c0,16.97-3.09,32.8-9.27,47.51c-6.18,14.71-14.38,26.48-24.62,35.34
	c-10.23,8.85-20.54,14.43-30.91,16.73c-10.37,2.31-23.72,3.46-40.04,3.46L140.17,433.22z M187.29,399.61h22.7
	c22.88,0,38.05-7.63,45.53-22.89c7.47-15.26,11.21-31.6,11.21-49.03c0-33.28-13.24-49.93-39.71-49.93h-19.37L187.29,399.61z"/>
<rect x="470.53" y="452.92" width="323.5" height="50.61"/>
<g>
	<text transform="matrix(1 0 0 1 480.8018 489.4061)" class="st1 st3 st4 st5">Denver Urban</text>
</g>
<rect x="480.53" y="519.95" width="276" height="50.61"/>
<g>
	<text transform="matrix(1 0 0 1 492.8071 556.4378)" class="st1 st3 st4 st5">Skate Troop</text>
</g>
<path d="M623.83,290.76l-38.72,8.99c-4.43-15.67-15.17-23.51-32.23-23.51c-7.93,0-14.22,1.89-18.88,5.66
	c-4.66,3.78-6.98,8.33-6.98,13.67c0,5.34,1.89,9.39,5.67,12.15c3.78,2.76,11.02,5.48,21.71,8.15c15.4,3.87,27.52,7.95,36.37,12.23
	c8.85,4.29,15.65,10.27,20.4,17.97c4.75,7.69,7.12,17.07,7.12,28.13c0,17.78-6.55,32.64-19.64,44.57
	c-13.09,11.93-31.72,17.9-55.87,17.9c-20.65,0-37.83-4.77-51.52-14.31s-22.2-23.9-25.52-43.08l40.38-5.53
	c4.15,18.72,16.92,28.08,38.31,28.08c9.68,0,17.1-2.07,22.27-6.21c5.16-4.14,7.75-9.38,7.75-15.72c0-6.07-1.96-10.46-5.89-13.17
	c-3.93-2.71-13.03-6.01-27.31-9.9c-13-3.43-23.35-7.21-31.04-11.36c-7.7-4.14-13.83-10.02-18.39-17.62
	c-4.56-7.6-6.85-16.29-6.85-26.05c0-15.94,6.04-29.99,18.12-42.15c12.08-12.16,28.72-18.24,49.93-18.24
	C589.53,241.39,613.13,257.85,623.83,290.76z"/>
<path class="st6" d="M455.53,479.42c0,25.13-20.37,45.5-45.5,45.5c-25.13,0-45.5-20.37-45.5-45.5c0-25.13,20.37-45.5,45.5-45.5
	c13.14,0,24.97,5.57,33.28,14.47C443.03,448.42,456.03,479.42,455.53,479.42"/>
<g>
	
		<rect x="383.07" y="520.88" transform="matrix(0.9327 -0.3605 0.3605 0.9327 -170.6631 185.7293)" class="st7" width="58.81" height="58.81"/>
	<g>
		<path d="M407.92,545.26c-0.14,0.03,0.01,0-0.13,0.03c-0.27,0.04-0.55-0.33-0.43-0.56c0.07-0.13,0.09-0.24-0.02-0.38
			c-0.05-0.06,0.01-0.21,0.01-0.32c0-0.07,0.01-0.14-0.01-0.2c-0.06-0.13-0.11-0.24-0.01-0.38c0.04-0.05,0.01-0.15,0.01-0.25
			c0.34-0.24,0.42-0.52,0.36-0.96c-0.02-0.13,0.09-0.3,0.17-0.43c0.1-0.15,0.32-0.26,0.35-0.42c0.06-0.27,0.25-0.39,0.43-0.51
			c0.43-0.29,0.88-0.54,1.32-0.81c0.03-0.02,0.06-0.04,0.08-0.09c-0.11,0.05-0.22,0.09-0.33,0.14c-0.01-0.01-0.01-0.02-0.02-0.04
			c0.11-0.07,0.23-0.14,0.34-0.21c-0.21-0.14-0.42-0.28-0.63-0.42c0.01-0.02,0.03-0.05,0.04-0.07c0.52,0.31,1.11,0.46,1.62,0.85
			c0.01,0,0.05-0.03,0.09-0.05c0.1,0.21,0.43,0.35,0.61,0.24c-0.03-0.04-0.06-0.08-0.09-0.11c0.01-0.02,0.01-0.03,0.01-0.05
			c0.41,0.12,0.81,0.24,1.22,0.36c-0.01,0.02-0.01,0.05-0.02,0.07c-0.21-0.06-0.42-0.11-0.63-0.18c-0.38-0.13-0.43-0.1-0.46,0.3
			c0.01,0.01,0.02,0.02,0.03,0.02c0.34,0.01,0.69,0.16,1.02,0c0.29-0.14,0.5,0.06,0.76,0.15c-0.21,0.04-0.41,0.09-0.62,0.13
			c-0.53,0.09-1.05,0.22-1.51,0.52c-0.19,0.12-0.35,0.27-0.53,0.41c0,0.02,0,0.05,0,0.07c0.24,0.1,0.47,0.2,0.71,0.28
			c0.06,0.02,0.15-0.07,0.22-0.11c0.32-0.21,0.64-0.42,0.98-0.6c-0.35,0.49-0.7,0.98-1.07,1.5c-0.01,0-0.08-0.02-0.14-0.03
			c0,0.01-0.01,0.01-0.01,0.02c0.05,0.03,0.09,0.06,0.14,0.09c-0.08,0.24-0.16,0.47-0.25,0.7c-0.02,0.05-0.09,0.09-0.14,0.12
			c-0.29,0.18-0.44,0.43-0.43,0.78c0.01,0.29,0.15,0.52,0.42,0.65c0.28,0.14,0.62,0.08,0.87-0.14c0.24-0.22,0.36-0.61,0.21-0.89
			c-0.1-0.19-0.09-0.34,0.01-0.52c0.05-0.1,0.08-0.21,0.13-0.31c0.03-0.05,0.09-0.09,0.13-0.13c0.01-0.05-0.01-0.12,0.02-0.17
			c0.18-0.29,0.36-0.58,0.55-0.87c0.16-0.23,0.35-0.45,0.51-0.68c0.04-0.06,0.08-0.16,0.06-0.22c-0.02-0.05-0.12-0.07-0.2-0.09
			c-0.05-0.01-0.1-0.01-0.15-0.01c-0.09-0.11,0.21-0.02,0.07-0.17c-0.03-0.03-0.01-0.1-0.01-0.19c0.15,0.02,0.34,0.05,0.53,0.08
			c0-0.01,0.01-0.02,0.01-0.03c-0.04-0.03-0.07-0.06-0.11-0.08c0.01,0,0.02-0.02,0.03-0.01c0.75,0.14,1.42,0.5,2.14,0.72
			c0.04,0.01,0.1,0.03,0.1,0.05c0.06,0.45,0.41,0.37,0.7,0.38c0.03,0,0.05,0,0.12,0.01c-0.07,0.04-0.11,0.05-0.2,0.1
			c0.45-0.01,0.83-0.03,1.22-0.04c0.01,0.03,0.01,0.07,0.02,0.1c-0.27,0.1-0.54,0.18-0.8,0.3c-0.55,0.24-1.02,0.61-1.43,1.05
			c-0.03,0.04-0.04,0.1-0.04,0.18c0.12-0.08,0.2-0.11,0.27,0.05c0.05,0.12,0.43,0.12,0.54,0.03c0.3-0.25,0.6-0.51,0.93-0.73
			c-0.19,0.25-0.39,0.49-0.58,0.74c-0.32,0.42-0.49,0.91-0.62,1.41c-0.02,0.08-0.08,0.16-0.14,0.21c-0.26,0.2-0.4,0.46-0.36,0.79
			c0.03,0.26,0.19,0.43,0.43,0.52c0.31,0.12,0.67,0.01,0.92-0.29c0.24-0.29,0.27-0.59,0.1-0.9c-0.03-0.06-0.03-0.17-0.01-0.24
			c0.23-0.65,0.57-1.24,1.06-1.75c0.21-0.22,0.35-0.49,0.52-0.75c0.02-0.04,0.04-0.11,0.02-0.14c-0.02-0.03-0.09-0.05-0.14-0.04
			c-0.22,0.04-0.44,0.09-0.65,0.13c-0.02,0.01-0.05,0.01-0.08,0.01c-0.01-0.02-0.01-0.04-0.02-0.05c0.14-0.05,0.28-0.13,0.42-0.15
			c0.3-0.03,0.6-0.03,0.9-0.04c0.29-0.02,0.59-0.08,0.87-0.05c0.53,0.05,1.05,0.14,1.57,0.25c-0.26,0.1-0.53,0.19-0.79,0.29
			c-0.03,0.01-0.06,0-0.09-0.01c-0.17-0.05-0.34-0.09-0.51-0.14c-0.26-0.09-0.48,0.02-0.57,0.23c-0.2,0.43-0.57,0.66-0.92,0.92
			c-0.11,0.08-0.21,0.17-0.36,0.29c0.21,0.02,0.36,0.04,0.51,0.06c-0.12,0.46-0.23,0.9-0.36,1.34c-0.01,0.05-0.08,0.08-0.11,0.13
			c-0.11,0.16-0.26,0.3-0.3,0.48c-0.13,0.5,0.27,0.9,0.78,0.79c0.32-0.07,0.56-0.25,0.7-0.57c0.11-0.25,0.08-0.47-0.1-0.68
			c-0.03-0.04-0.07-0.11-0.05-0.15c0.18-0.48,0.36-0.96,0.55-1.44c0.1-0.27,0.33-0.39,0.59-0.49c0.48-0.18,0.96-0.35,1.43-0.53
			c0.23-0.09,0.44-0.21,0.68-0.29c0.11-0.04,0.24-0.03,0.36,0c0.17,0.03,0.34,0.1,0.52,0.17c-1.11,0.24-2.15,0.62-3.04,1.44
			c0.28,0.04,0.52,0.1,0.75,0.09c0.14-0.01,0.27-0.13,0.39-0.19c-0.1,0.26-0.22,0.54-0.32,0.82c-0.04,0.09-0.06,0.19-0.09,0.28
			c-0.05,0.2-0.12,0.37-0.3,0.5c-0.27,0.21-0.33,0.59-0.18,0.84c0.16,0.26,0.53,0.36,0.86,0.25c0.37-0.12,0.61-0.35,0.65-0.73
			c0.01-0.13-0.09-0.27-0.13-0.41c-0.02-0.07-0.07-0.15-0.05-0.21c0.11-0.31,0.23-0.62,0.37-0.92c0.09-0.17,0.23-0.32,0.35-0.48
			c0.06-0.07,0.12-0.14,0.17-0.22c0.14-0.2,0.1-0.27-0.15-0.29c-0.03,0-0.05-0.01-0.08-0.01c0,0-0.01-0.01-0.03-0.04
			c0.25-0.06,0.49-0.13,0.73-0.18c0.29-0.07,0.57-0.16,0.87-0.2c0.22-0.03,0.45-0.01,0.66,0.03c0.22,0.04,0.43,0.14,0.69,0.23
			c-0.27,0.14-0.43,0.41-0.77,0.31c-0.17-0.05-0.36-0.02-0.54-0.01c-0.18,0-0.25,0.15-0.26,0.28c-0.02,0.26-0.19,0.36-0.39,0.46
			c-0.04,0.02-0.08,0.05-0.11,0.12c0.06,0,0.11-0.01,0.17-0.01c0.12-0.01,0.2,0.02,0.18,0.17c-0.04,0.26-0.06,0.52-0.11,0.78
			c-0.01,0.06-0.06,0.13-0.11,0.17c-0.2,0.17-0.33,0.37-0.25,0.64c0.06,0.21,0.35,0.34,0.65,0.34c0.39,0,0.69-0.18,0.89-0.5
			c0.17-0.28,0.11-0.49-0.19-0.65c-0.02-0.01-0.04-0.03-0.05-0.03c0.04-0.27,0.07-0.52,0.13-0.77c0.02-0.09,0.1-0.18,0.18-0.24
			c0.44-0.28,0.88-0.56,1.33-0.82c0.32-0.19,0.67-0.25,1.01-0.02c0.02,0.01,0.05,0,0.08,0.01c0.07,0.15,0.14,0.3,0.2,0.43
			c-0.15,0.16-0.27,0.3-0.39,0.43c0.14,0.04,0.71-0.12,0.79-0.27c-0.19,0.07-0.34,0.12-0.49,0.18c0.22-0.23,0.21-0.47,0.06-0.7
			c-0.03-0.04-0.11-0.04-0.17-0.07c0.04-0.04,0.08-0.12,0.12-0.12c0.59-0.02,1.19-0.07,1.78-0.04c0.49,0.03,0.96-0.12,1.44-0.04
			c1.44,0.24,2.65,0.84,3.47,2.1c0.37,0.57,0.74,1.15,0.94,1.81c0.08,0.26,0.09,0.55,0.14,0.82c0.01,0.08,0.04,0.17,0.08,0.23
			c0.32,0.42,0.51,0.9,0.58,1.41c0.02,0.13-0.06,0.33-0.16,0.42c-0.32,0.31-0.66,0.6-1.01,0.89c-0.09,0.07-0.12,0.13-0.08,0.24
			c0.11,0.33,0.2,0.67,0.3,1.01c0.11,0.35-0.02,0.63-0.24,0.89c-0.06,0.07-0.13,0.11-0.07,0.22c0.02,0.03-0.02,0.09-0.05,0.14
			c-0.05,0.09-0.11,0.18-0.18,0.3c0.19-0.04,0.34-0.07,0.49-0.1c0,0.02,0.01,0.03,0.01,0.05c-0.53,0.15-0.97,0.45-1.3,0.86
			c-0.31,0.39-0.76,0.61-1.08,0.98c-0.22,0.26-0.43,0.54-0.59,0.84c-0.12,0.21,0.08,0.37,0.21,0.52c0.11,0.14,0.23,0.04,0.34-0.02
			c0.02-0.01,0.04-0.02,0.05-0.03c0.16-0.14,0.32-0.17,0.47,0.02c0.03,0.04,0.08,0.05,0.15,0.05c-0.09-0.1-0.19-0.19-0.29-0.3
			c0.12-0.11,0.25-0.22,0.38-0.33c0.06-0.05,0.14-0.06,0.14,0.06c0,0.02,0,0.05,0,0.05c0.2,0.07,0.08,0.19,0.03,0.31
			c0.12-0.03,0.25-0.1,0.22,0.11c0,0.01,0.14,0.04,0.24,0.07c-0.07,0.09-0.11,0.14-0.13,0.17c0.11,0,0.23,0.03,0.32-0.01
			c0.14-0.06,0.26-0.15,0.38-0.25c0.13-0.11,0.25-0.24,0.38-0.36c0.02,0.01,0.03,0.03,0.05,0.04c-0.05,0.06-0.1,0.13-0.16,0.18
			c-0.1,0.09-0.22,0.15-0.3,0.25c-0.1,0.13-0.16,0.29-0.22,0.42c0.12,0.11,0.2,0.19,0.29,0.25c0.04,0.03,0.1,0.04,0.14,0.03
			c0.23-0.04,0.39-0.19,0.53-0.36c0.09-0.11,0.21-0.2,0.31-0.3c0.02-0.02,0.05-0.04,0.08-0.06c0.28-0.21,0.29-0.4,0.04-0.63
			c-0.05-0.04-0.1-0.08-0.15-0.12c0.01-0.04,0.03-0.08,0.05-0.14c-0.07,0.02-0.12,0.03-0.14,0.03c-0.03-0.06-0.06-0.11-0.08-0.17
			c-0.02-0.06-0.03-0.12-0.04-0.19c-0.17,0.02-0.34-0.16-0.33-0.33c-0.09-0.09-0.15-0.15-0.24-0.24c0.01,0-0.03,0.01-0.08,0.02
			c0-0.01-0.01-0.02-0.01-0.03c0.1-0.08,0.2-0.16,0.27-0.22c0.17,0.19,0.35,0.38,0.5,0.57c0.09,0.12,0.24,0.16,0.29,0.33
			c0.05,0.14,0.19,0.25,0.29,0.37c0.04,0.06,0.08,0.13,0.13,0.22c0.09-0.07,0.2-0.14,0.3-0.23c0.13-0.12,0.24-0.18,0.37-0.01
			c0.03,0.03,0.07,0.05,0.13,0.09c0.31-0.29,0.62-0.58,0.93-0.87c0.06-0.06,0.13-0.12,0.2-0.17c0.12-0.09,0.24-0.08,0.34,0.02
			c0.57,0.51,1.15,1.02,1.71,1.55c0.31,0.3,0.4,0.68,0.2,1.08c-0.2,0.41-0.43,0.82-0.68,1.21c-0.25,0.38-0.52,0.74-0.83,1.07
			c-0.3,0.31-0.65,0.57-0.99,0.84c-0.27,0.22-0.55,0.45-0.85,0.61c-0.44,0.23-0.9,0.42-1.36,0.6c-0.15,0.06-0.34,0.05-0.51,0.04
			c-0.16-0.01-0.24,0.01-0.24,0.2c0,0.48-0.25,0.87-0.47,1.27c-0.01,0.01-0.03,0.02-0.09,0.04c0.01-0.09,0.02-0.16,0.03-0.22
			c0.05-0.19,0.1-0.38,0.15-0.58c0.03-0.12,0.04-0.24,0.16-0.34c0.19-0.18,0.14-0.39-0.03-0.59c-0.3-0.34-0.57-0.7-0.85-1.06
			c-0.22-0.28-0.42-0.56-0.63-0.84c-0.18-0.25-0.17-0.34,0.07-0.55c0.07-0.06,0.14-0.12,0.22-0.19c-0.19-0.28-0.38-0.56-0.57-0.83
			c0.01-0.01,0.03-0.02,0.04-0.03c0.1,0.13,0.2,0.26,0.29,0.39c0.03,0.04,0.05,0.08,0.07,0.12c0.17,0.3,0.19,0.3,0.47,0.08
			c-0.64-1.03-1.49-1.85-2.56-2.42c-0.07-0.04-0.19-0.05-0.24-0.02c-0.32,0.27-0.63,0.55-0.96,0.84c0.33,0.09,0.69,0.17,1.02,0.3
			c0.24,0.1,0.46,0.28,0.67,0.44c0.16,0.12,0.29,0.27,0.42,0.42c0.31,0.34,0.48,0.77,0.68,1.18c0.25,0.51,0.36,1.05,0.38,1.61
			c0.01,0.16-0.02,0.33-0.02,0.49c0,0.13,0.04,0.27,0.01,0.39c-0.04,0.17-0.09,0.36-0.2,0.48c-0.42,0.43-0.87,0.83-1.41,1.1
			c-0.15,0.08-0.2,0.05-0.25-0.11c-0.1-0.3-0.21-0.59-0.32-0.9c-0.25,0.23-0.49,0.45-0.73,0.67c-0.03,0.03-0.05,0.11-0.04,0.16
			c0.09,0.34,0.19,0.68,0.28,1.01c0.03,0.11,0.05,0.2,0.2,0.2c0.06,0,0.11,0.08,0.16,0.08c0.11,0,0.22-0.03,0.32,0
			c0.14,0.05,0.25,0.14,0.25,0.33c0,0.56-0.1,1.09-0.34,1.59c-0.06,0.12-0.13,0.22-0.2,0.34c-0.17-0.07-0.25-0.03-0.3,0.14
			c-0.05,0.17-0.14,0.33-0.24,0.47c-0.09,0.13-0.22,0.23-0.34,0.34c-0.09,0.08-0.19,0.17-0.27,0.24c-0.03-0.04-0.07-0.11-0.15-0.22
			c-0.42,0.86-0.88,1.63-1.6,2.2c0.42-0.41,0.5-0.93,0.47-1.48c0-0.08-0.07-0.15-0.1-0.23c-0.02,0-0.04,0-0.06,0.01
			c-0.06,0.14-0.12,0.29-0.18,0.43c-0.22,0.5-0.51,0.94-0.93,1.3c-0.46,0.4-1.02,0.56-1.6,0.64c-1.35,0.19-2.59-0.15-3.71-0.92
			c-0.8-0.55-1.45-1.23-1.93-2.07c-0.04-0.06-0.07-0.13-0.12-0.21c0.05,0,0.08,0.01,0.11,0.01c0.08-0.01,0.16-0.03,0.24-0.04
			c-0.03-0.07-0.06-0.14-0.09-0.2c-0.01-0.01-0.02-0.02-0.02-0.03c-0.12-0.27-0.12-0.27-0.41-0.12c-0.03-0.05-0.05-0.1-0.05-0.1
			c0.1-0.04,0.23-0.05,0.28-0.11c0.04-0.05,0.02-0.2-0.02-0.27c-0.09-0.15-0.24-0.22-0.46-0.11c0.01-0.09,0.02-0.15,0.03-0.22
			c0.06,0.02,0.11,0.04,0.17,0.07c0.05,0.02,0.09,0.04,0.2,0.09c-0.04-0.11-0.06-0.17-0.08-0.23c-0.02-0.05-0.04-0.09-0.04-0.14
			c-0.01-0.07,0-0.14,0-0.21c-0.08,0.01-0.16,0.01-0.27,0.02c-0.03-0.04-0.1-0.11-0.16-0.17c0.17,0,0.32,0.01,0.46,0.01
			c0.01,0.04,0.03,0.09,0.04,0.13c0.08,0.77,0.39,1.45,0.82,2.08c0.09,0.14,0.21,0.26,0.32,0.39c0.01-0.01,0.02-0.02,0.03-0.03
			c-0.12-0.18-0.23-0.37-0.39-0.61c0.18-0.01,0.29-0.02,0.4-0.03c-0.55-0.91-0.76-1.9-0.63-2.97c-0.26,0.01-0.25,0.42-0.56,0.33
			c-0.01,0.24-0.02,0.47-0.04,0.7c-0.01-0.16-0.1-0.23-0.25-0.22c-0.2,0.02-0.25-0.08-0.24-0.26c0.01-0.09,0-0.18-0.01-0.3
			c0.12,0.07,0.21,0.14,0.31,0.18c0.11,0.06,0.16,0.01,0.16-0.11c0-0.06,0.01-0.12,0.01-0.19c0-0.11-0.04-0.19-0.18-0.18
			c-0.07,0.01-0.18,0.02-0.22-0.02c-0.04-0.04-0.02-0.15-0.02-0.18c0.15,0.04,0.29,0.09,0.43,0.1c0.02,0,0.09-0.13,0.08-0.19
			c-0.03-0.21-0.19-0.3-0.4-0.35c0.02-0.05,0.03-0.1,0.06-0.16c0.1,0.1,0.18,0.18,0.27,0.26c0.08,0.08,0.15,0.07,0.22-0.01
			c0.09,0,0.18,0.02,0.27,0.01c0.3-0.01,0.53-0.22,0.6-0.53c-0.2,0.07-0.38,0.14-0.57,0.21c0.27-0.25,0.68-0.23,0.94-0.53
			c-0.11,0-0.18,0-0.26,0c0-0.02,0-0.04-0.01-0.06c0.72-0.12,1.35-0.57,2.12-0.53c0-0.03,0-0.06,0-0.1
			c-0.1-0.02-0.19-0.05-0.29-0.07c0-0.01,0.02-0.04,0.03-0.07c0.01-0.03,0.01-0.06,0.02-0.09c-0.83-0.1-1.53,0.19-2.16,0.68
			c0.07-0.12,0.04-0.24-0.08-0.24c-0.18,0-0.19-0.14-0.28-0.24c0.16-0.12,0.31-0.24,0.47-0.37c0.04,0.11,0.06,0.22,0.11,0.3
			c0.05,0.07,0.12,0.16,0.2,0.18c0.05,0.01,0.18-0.07,0.19-0.12c0.01-0.08-0.02-0.19-0.08-0.26c-0.08-0.09-0.23-0.13-0.29-0.23
			c-0.11-0.19-0.26-0.12-0.4-0.09c-0.33,0.07-0.51,0.34-0.67,0.6c-0.2,0.32-0.37,0.67-0.57,1c0.05-0.38,0.16-0.75,0.39-1.06
			c0.23-0.31,0.49-0.61,0.78-0.86c0.28-0.24,0.63-0.42,0.97-0.64c-0.35-0.06-0.76,0.06-1.37,0.59c0.35-0.46,0.79-0.83,1.29-1.15
			c-0.07-0.07-0.11-0.11-0.16-0.16c-0.02,0.08-0.04,0.15-0.05,0.23c-0.02,0-0.04-0.01-0.07-0.01c-0.11-0.19-0.29-0.36-0.07-0.61
			c0.04-0.04,0.02-0.13,0.02-0.17c-0.1-0.1-0.19-0.17-0.27-0.26c-0.25-0.28-0.52-0.36-0.84-0.22c-1.52,0.66-3.12,1.06-4.75,1.36
			c-0.54,0.1-1.08,0.18-1.62,0.27c-0.05,0.01-0.1,0.02-0.18,0.04c0.1,0.15,0.17,0.29,0.27,0.42c0.46,0.63,0.7,1.35,0.89,2.09
			c0.15,0.59,0.19,1.18,0.07,1.77c-0.02,0.1-0.04,0.2-0.09,0.28c-0.13,0.24-0.21,0.49-0.2,0.78c0.01,0.12-0.04,0.25-0.07,0.4
			c-0.05-0.06-0.08-0.1-0.14-0.2c-0.22,0.73-0.75,1.17-1.28,1.61c0.29-0.3,0.54-0.63,0.67-1.04c-0.02,0-0.04-0.01-0.04-0.01
			c-0.28,0.29-0.55,0.58-0.83,0.87c-0.32,0.32-0.69,0.58-1.15,0.71c0.01-0.05,0.02-0.08,0.03-0.16c-0.1,0.05-0.18,0.09-0.26,0.14
			c-0.07-0.31-0.35-0.33-0.59-0.39c-0.2-0.05-0.4-0.05-0.64-0.08c0.11,1.48-0.36,2.69-1.64,3.59c0.05-0.21,0.08-0.37,0.12-0.53
			c-0.01-0.01-0.03-0.01-0.04-0.02c-0.22,0.42-0.39,0.88-0.79,1.18c-0.38,0.29-0.76,0.58-1.16,0.86c0.36-0.38,0.26-0.73-0.03-1.1
			c-0.04,0.05-0.07,0.09-0.09,0.13c-0.54,1.36-1.8,1.6-2.91,1.45c-1.28-0.17-2.25-0.89-3.08-1.82c-0.29-0.33-0.52-0.71-0.8-1.09
			c0.13-0.02,0.22-0.03,0.31-0.05l0,0c0.18,0.28,0.32,0.58,0.54,0.83c0.81,0.93,1.77,1.61,3.03,1.76c1.08,0.13,2.08-0.37,2.56-1.26
			c0.11-0.21,0.16-0.38-0.05-0.55c-0.06-0.05-0.11-0.13-0.19-0.22c-0.03,0.06-0.07,0.12-0.09,0.17c-0.21,0.51-0.53,0.92-1.04,1.15
			c-0.44,0.2-0.9,0.25-1.38,0.2c-0.16-0.01-0.32-0.09-0.46,0.08c-0.02,0.03-0.25-0.1-0.37-0.18c-0.08-0.05-0.15-0.13-0.22-0.19
			c-0.08-0.07-0.16-0.13-0.22-0.23c0.12,0.04,0.23,0.11,0.35,0.13c0.09,0.01,0.25,0.1,0.29-0.12c0.01,0,0.05,0.01,0.08,0
			c0.05-0.01,0.09-0.03,0.13-0.05c-0.03-0.04-0.05-0.09-0.09-0.11c-0.11-0.06-0.15-0.11-0.09-0.25c0.03-0.07,0.06-0.24-0.16-0.29
			c-0.18-0.04-0.34-0.19-0.5-0.31c-0.1-0.08-0.37-0.12-0.5-0.07c-0.08,0.03-0.21,0.02-0.27-0.03c-0.17-0.11-0.32-0.25-0.5-0.37
			c0.06,0.09,0.12,0.19,0.19,0.3c-0.06,0.03-0.1,0.05-0.19,0.09c0.15,0.16,0.29,0.31,0.42,0.45c-0.01,0.01-0.02,0.02-0.03,0.03
			c-0.04-0.03-0.09-0.06-0.12-0.1c-0.28-0.35-0.59-0.69-0.81-1.07c-0.44-0.75-0.57-1.58-0.42-2.43c0.12-0.71,0.68-1.39,1.52-1.54
			c0.15-0.03,0.3-0.05,0.45-0.06c-0.64,0.11-1.12,0.43-1.46,1.03c0.22,0.03,0.41,0.05,0.6,0.08c0.02,0,0.05-0.01,0.05-0.02
			c0.07-0.19,0.24-0.14,0.38-0.18c0.11-0.04,0.23-0.09,0.3-0.17c0.12-0.17,0.27-0.11,0.41-0.1c0.02,0,0.03,0.07,0.04,0.1
			c0.16-0.09,0.33-0.18,0.51-0.28c-0.1-0.07-0.2-0.13-0.29-0.18c0.13-0.28,0.32-0.18,0.5-0.12c0.06,0.01,0.13,0,0.18,0.03
			c0.25,0.12,0.49,0.25,0.72,0.38c-0.11-0.26-0.29-0.45-0.61-0.48c-0.05-0.01-0.11-0.04-0.13-0.08c-0.12-0.17-0.31-0.18-0.49-0.2
			c0.09,0.08,0.19,0.14,0.28,0.22c0.03,0.03,0.03,0.1,0.04,0.14c-0.24-0.16-0.47-0.32-0.71-0.48c-0.03-0.02-0.07-0.04-0.1-0.06
			c0.03,0,0.07,0.02,0.1,0.01c0.06-0.01,0.15-0.02,0.17-0.05c0.02-0.05,0-0.13-0.02-0.2c-0.01-0.06-0.03-0.12-0.06-0.17
			c-0.03-0.04-0.08-0.09-0.13-0.1c-0.03-0.01-0.11,0.04-0.11,0.08c-0.03,0.15-0.09,0.31,0.06,0.43c-0.07,0-0.13-0.01-0.18-0.01
			c0.01-0.08,0.04-0.16,0.01-0.2c-0.25-0.35-0.49-0.71-0.77-1.04c-0.08-0.09-0.27-0.08-0.42-0.1c-0.06-0.01-0.13,0-0.21-0.03
			c0.38-0.27,0.83-0.32,1.27-0.46c-0.03-0.04-0.06-0.08-0.07-0.1c0.16-0.14,0.32-0.27,0.46-0.42c0.13-0.15,0.28-0.24,0.48-0.25
			c0.19-0.01,0.37-0.01,0.56-0.03c0.11-0.02,0.22-0.07,0.32-0.15c-0.26-0.15-0.54-0.09-0.83-0.05c0.11-0.24,0.27-0.4,0.48-0.46
			c0.35-0.11,0.72-0.18,1.07-0.28c0.64-0.18,1.22,0.1,1.82,0.22c0.05,0.01,0.1,0.03,0.18,0.01c-0.36-0.39-0.7-0.79-1.07-1.18
			c-0.14-0.15-0.31-0.28-0.49-0.38c-0.09-0.05-0.26-0.06-0.35,0c-0.08,0.05-0.13,0.21-0.13,0.32c0,0.25,0.01,0.26-0.23,0.2
			c-0.04-0.01-0.1,0.01-0.14,0.03c-0.28,0.17-0.56,0.35-0.84,0.53c-0.21,0.13-0.35,0.12-0.52-0.05c-0.44-0.45-0.88-0.92-1.31-1.39
			c-0.05-0.06-0.07-0.15-0.1-0.24c-0.43-0.14-0.57-0.25-0.51-0.44c-0.03-0.01-0.05-0.02-0.07-0.02c-0.42,0.01-0.65-0.28-0.85-0.58
			c-0.28-0.44-0.53-0.9-0.82-1.34c-0.46-0.72-0.93-1.43-1.41-2.14c-0.12-0.17-0.27-0.32-0.39-0.49c-0.05-0.08-0.09-0.17-0.11-0.27
			c-0.04-0.18-0.05-0.36-0.08-0.55c-0.01-0.04-0.05-0.09-0.09-0.12c-0.29-0.18-0.44-0.46-0.56-0.77c-0.43-1.12-0.75-2.27-1.02-3.44
			c-0.3-1.31-0.5-2.63-0.54-3.96c-0.04-1.36-0.01-2.73-0.02-4.09c0-0.46-0.03-0.93-0.04-1.39c-0.01-0.82-0.19-1.6-0.39-2.39
			c-0.13-0.48-0.15-0.99-0.23-1.49c-0.05-0.29-0.1-0.59-0.18-0.87c-0.14-0.5-0.17-1-0.16-1.51c0.03-0.91,0.37-1.72,0.78-2.51
			c0.1-0.2,0.22-0.4,0.34-0.6c0.54-0.88,1.09-1.47,1.91-2.22c0.32-0.29,0.6-0.63,0.92-0.93c0.86-0.8,1.84-1.42,3.01-1.63
			c0.8-0.15,1.48,0.09,1.97,0.78c0.11,0.16,0.21,0.32,0.34,0.47c0.05,0.06,0.16,0.12,0.24,0.11c0.08-0.01,0.21-0.06,0.12-0.21
			c-0.01-0.01,0.09-0.08,0.13-0.12c0.08-0.08,0.3-0.06,0.22-0.28c-0.01-0.02,0.11-0.09,0.17-0.13c0.07-0.06,0.16-0.1,0.22-0.17
			c0.14-0.16,0.27-0.33,0.42-0.48c0.05-0.05,0.16-0.03,0.26-0.04c-0.01-0.05-0.02-0.09-0.03-0.14c-0.03-0.11-0.01-0.2,0.1-0.27
			c0.11-0.06,0.19-0.16,0.29-0.24c0.1-0.08,0.16-0.05,0.2,0.07c0.04,0.13,0.11,0.25,0.18,0.4c-0.16,0.24,0.01,0.45,0.15,0.68
			c-0.15,0.21-0.37,0.19-0.47-0.05c-0.1-0.26-0.09-0.52,0.02-0.78c-0.19,0.24-0.39,0.49-0.58,0.73c0.01,0.01,0.02,0.02,0.03,0.03
			c0.05-0.03,0.09-0.07,0.15-0.11c-0.01,0.17-0.12,0.23-0.25,0.28c-0.21,0.08-0.39,0.2-0.48,0.45c0.23,0.03,0.39-0.05,0.54-0.18
			c0.06-0.04,0.14-0.06,0.21-0.08c0.01,0.08,0.01,0.16,0.02,0.26c0.02,0,0.08,0.01,0.13,0.01c0.04,0.18,0.05,0.36,0.11,0.51
			c0.07,0.16,0.2,0.29,0.26,0.38c0.08-0.03,0.16-0.08,0.19-0.06c0.19,0.13,0.38,0.26,0.48,0.47c0.04,0.08-0.01,0.21,0.03,0.27
			c0.06,0.03,0.15,0.04,0.17,0.09c0.06,0.13,0.08,0.28,0.13,0.41c0.08,0.25,0.17,0.5,0.27,0.74c0.06,0.14,0.05,0.24-0.08,0.34
			c-0.17,0.13-0.33,0.29-0.49,0.43c-0.02,0.02-0.05,0.05-0.08,0.06c-0.39,0.03-0.68,0.26-1,0.44c-0.24,0.14-0.53,0.2-0.8,0.27
			c-0.51,0.13-1.03,0.2-1.52,0.36c-0.49,0.16-0.97,0.38-1.44,0.6c-0.12,0.06-0.25,0.18-0.31,0.3c-0.08,0.15-0.18,0.15-0.3,0.15
			c-0.59,0.02-0.9,0.52-0.66,1.05c0.04,0.09,0.13,0.2,0.22,0.23c0.23,0.09,0.47,0.15,0.72,0.19c0.09,0.02,0.24-0.02,0.3-0.08
			c0.22-0.28,0.47-0.1,0.68-0.08c-0.09,0.24-0.17,0.48-0.26,0.71c-0.02,0.05-0.09,0.11-0.14,0.11c-0.38,0.02-0.65,0.39-0.66,0.69
			c-0.01,0.36,0.17,0.58,0.6,0.72c0.13,0.04,0.26,0.12,0.39,0.12c0.12,0.01,0.3-0.02,0.37-0.11c0.19-0.24,0.4-0.15,0.62-0.11
			c-0.05,0.2-0.08,0.4-0.15,0.59c-0.02,0.06-0.13,0.1-0.21,0.12c-0.32,0.1-0.49,0.32-0.54,0.65c-0.05,0.42,0.22,0.74,0.65,0.76
			c0.14,0.01,0.28,0,0.31,0.17c0.08-0.03,0.16-0.07,0.24-0.11c0.07-0.03,0.15-0.05,0.22-0.1c0.13-0.08,0.39-0.19,0.53-0.19
			c0.56,0,1.01-0.25,1.45-0.57c0.08-0.06,0.16-0.11,0.26-0.15c-0.02,0.03-0.04,0.07-0.06,0.1c-0.25,0.28-0.5,0.56-0.75,0.84
			c-0.03,0.03-0.07,0.06-0.1,0.09c-0.36,0.24-0.5,0.68-0.33,1.04c0.17,0.37,0.49,0.5,0.95,0.39c0.01,0,0.03,0,0,0
			c0.08,0.1,0.17,0.17,0.2,0.27c0.09,0.27,0.24,0.51,0.36,0.76c0.05,0.11,0.03,0.24,0.16,0.33c0.07,0.04,0.06,0.19,0.1,0.28
			c0.03,0.08,0.08,0.16,0.12,0.24c0.05,0.11,0.11,0.22,0.16,0.33c0.03,0.07,0.03,0.18,0.08,0.2c0.18,0.07,0.19,0.21,0.19,0.37
			c0,0.14,0.06,0.19,0.17,0.16l0,0c0,0.01,0.02,0.03,0.01,0.04c-0.07,0.26,0.08,0.32,0.29,0.4c0.08,0.03,0.12,0.23,0.14,0.36
			c0.02,0.14-0.01,0.28,0,0.42c0,0.03,0.07,0.08,0.11,0.08c0.03,0,0.09-0.04,0.1-0.07c0.04-0.12,0.08-0.25,0.12-0.4
			c0.02,0.09,0.03,0.17,0.05,0.25c0.17-0.08,0.18-0.11,0.13-0.35c0.12-0.03,0.12-0.02,0.25-0.05L407.92,545.26z M404.48,568.41
			c0.09,0.09,0.18,0.18,0.27,0.27c0.12-0.18,0.06-0.4-0.11-0.45c-0.05-0.02-0.13,0.01-0.18,0.05c-0.01,0.01,0.02,0.1,0.03,0.15
			c-0.08,0-0.15-0.01-0.27-0.01c0.14,0.15,0.24,0.26,0.35,0.37c0.02-0.01,0.04-0.02,0.06-0.03
			C404.58,568.63,404.53,568.52,404.48,568.41z M425.65,564.39c0.08,0.06,0.16,0.12,0.24,0.18c-0.05,0.03-0.11,0.06-0.16,0.1
			c-0.04,0.02-0.06,0.06-0.11,0.1c0.02,0.03,0.04,0.11,0.09,0.15c0.07,0.05,0.16,0.08,0.23,0.12c0.12,0.17,0.24,0.35,0.37,0.52
			c0.2,0.26,0.4,0.51,0.45,0.85c0,0.03,0.03,0.07,0.05,0.1c-0.02-0.19,0.08-0.4-0.1-0.57c-0.06-0.06-0.04-0.21-0.03-0.31
			c0.01-0.11-0.16-0.45-0.24-0.43c-0.2,0.05-0.34-0.07-0.49-0.15c-0.03-0.06-0.07-0.12-0.08-0.18c0-0.1,0.02-0.2,0.03-0.3
			c0.14-0.06,0.15-0.2,0.09-0.3c-0.05-0.09-0.17-0.16-0.28-0.21c-0.04-0.02-0.17,0.07-0.16,0.1
			C425.55,564.25,425.61,564.32,425.65,564.39c-0.11-0.06-0.23-0.07-0.36-0.07c-0.12,0-0.25-0.12-0.35-0.21
			c-0.06-0.06-0.07-0.17-0.1-0.26c0.06-0.04,0.16-0.07,0.16-0.11c0-0.11-0.03-0.21-0.06-0.32c0,0,0.02,0,0.04,0.01
			c0.01,0,0.02,0.01,0.04,0.01c0.11-0.34,0.3-0.09,0.46-0.07c0.14,0.02,0.27,0.06,0.41,0.09c-0.05,0.14-0.11,0.28-0.16,0.42
			c0.07,0.05,0.17,0.14,0.28,0.19c0.06,0.03,0.17,0.03,0.22-0.01c0.08-0.06,0.14-0.15,0.2-0.23c-0.11-0.11-0.2-0.22-0.3-0.29
			c-0.06-0.05-0.16-0.04-0.24-0.06c-0.03-0.06-0.05-0.12-0.08-0.18c-0.14,0.08-0.2-0.07-0.3-0.11c-0.22-0.09-0.3-0.24-0.19-0.47l0,0
			c0.21-0.27,0.41-0.55,0.62-0.82c-0.22,0.12-0.22,0.12-0.47,0.04c-0.23-0.08-0.47-0.15-0.74-0.23c0.06-0.15,0.11-0.3,0.18-0.48
			c-0.16,0.13-0.34,0.15-0.41,0.04c-0.02-0.03,0.01-0.11,0.02-0.16c-0.2-0.01-0.3,0.16-0.35,0.32c-0.06,0.17-0.14,0.21-0.3,0.2
			c-0.5-0.02-0.99,0.04-1.48,0.2c0.08,0.03,0.15,0.04,0.2,0.07c0.23,0.13,0.46,0.17,0.72,0.13c0.17-0.03,0.34-0.03,0.51-0.04
			c0.04,0,0.11,0.05,0.12,0.08c0.04,0.14-0.01,0.18-0.16,0.17c-0.37-0.03-0.74-0.1-1.02,0.26c-0.04,0.05-0.17,0.07-0.24,0.05
			c-0.3-0.07-0.42,0.16-0.51,0.35c-0.06,0.13-0.04,0.34,0.01,0.49c0.07,0.19,0.23,0.01,0.35,0.03c0-0.07,0.03-0.15,0.01-0.22
			c-0.04-0.1-0.1-0.19-0.17-0.3c0.24-0.02,0.26,0.11,0.28,0.26c0.01,0.1,0.03,0.26,0.19,0.21c0.15-0.05,0.03-0.16,0.02-0.25
			c-0.01-0.03-0.03-0.06-0.03-0.09c0.01-0.06,0.03-0.11,0.05-0.16c0.06,0.11,0.07,0.2,0.09,0.29c0.04,0.18,0.15,0.25,0.33,0.21
			c0.12-0.02,0.16-0.13,0.08-0.22c-0.06-0.07-0.12-0.15-0.19-0.25c0.31-0.04,0.35-0.01,0.29,0.22c-0.03,0.14,0.03,0.23,0.15,0.26
			c0.08,0.02,0.18-0.02,0.27-0.03c-0.02-0.09-0.04-0.19-0.06-0.28c0-0.02-0.02-0.03-0.03-0.07c0.17-0.02,0.34-0.05,0.5-0.06
			c0.02,0,0.05,0.02,0.07,0.04c0.18,0.11,0.35,0.22,0.53,0.33c-0.21,0.24-0.19,0.39,0.1,0.52c-0.06,0.03-0.12,0.07-0.22,0.12
			c0.08,0.08,0.14,0.16,0.21,0.21c0.12,0.08,0.25,0.14,0.37,0.22C425.36,564.52,425.5,564.52,425.65,564.39z M403.94,567.39
			c0.28-0.13,0.45,0.09,0.64,0.22c0.05,0.03,0.09,0.08,0.14,0.1c0.12,0.05,0.14,0.12,0.07,0.23c-0.09,0.15,0.06,0.25,0.13,0.24
			c0.12-0.02,0.24-0.12,0.34-0.21c0.03-0.03,0.03-0.14,0-0.19c-0.06-0.12-0.14-0.23-0.28-0.14c-0.17-0.16-0.32-0.34-0.5-0.46
			c-0.15-0.11-0.21-0.2-0.1-0.36c-0.12-0.07-0.22-0.13-0.34-0.19c-0.09,0.18-0.2,0.25-0.39,0.16c-0.07-0.03-0.17,0-0.28,0
			c0.15,0.12,0.32,0.19,0.36,0.3C403.77,567.23,403.85,567.3,403.94,567.39c-0.17-0.09-0.18,0.1-0.28,0.15
			c-0.03,0.01-0.07,0.11-0.06,0.12c0.07,0.08,0.15,0.15,0.23,0.2c0.03,0.02,0.13-0.02,0.13-0.04
			C403.99,567.67,404.08,567.52,403.94,567.39z M403.95,565.25c0.2,0.07,0.41,0.13,0.59,0.19
			C404.51,565.26,404.18,565.13,403.95,565.25c-0.14-0.06-0.23,0.02-0.29,0.12c-0.06,0.1-0.12,0.2-0.17,0.29
			c-0.25-0.06-0.48-0.13-0.71-0.18c-0.19-0.04-0.14-0.12-0.03-0.21c-0.12-0.04-0.24-0.08-0.35-0.11c0.02,0.02,0.04,0.03,0.06,0.05
			c-0.06,0.08-0.1,0.17-0.17,0.23c-0.07,0.05-0.17,0.07-0.25,0.1c0,0.02,0,0.04,0,0.06c0.4,0.18,0.73,0.53,1.24,0.48
			c-0.01,0.07-0.02,0.12-0.02,0.17c-0.12-0.01-0.23-0.03-0.35-0.04c-0.11-0.01-0.22,0.01-0.18,0.15c0.03,0.1,0.11,0.19,0.16,0.29
			c0.05,0.09,0.11,0.17,0.16,0.25c0.13-0.17,0.21-0.39,0.19-0.65c0.1-0.11,0.19-0.23,0.28-0.32c0.21,0.07,0.4,0.14,0.59,0.2
			c0.01-0.01,0.03-0.02,0.04-0.04c-0.03-0.05-0.05-0.12-0.09-0.14c-0.11-0.06-0.23-0.09-0.35-0.14c-0.05-0.02-0.11-0.06-0.12-0.11
			C403.57,565.57,403.81,565.28,403.95,565.25z M425.84,565.19L425.84,565.19c-0.52-0.56-1.14-0.81-1.93-0.7
			c-0.63,0.09-1.13,0.56-1.25,1.23c-0.23,1.25,0.77,2.41,1.6,2.79c1,0.46,2.51-0.1,2.46-1.58
			C426.69,566.24,426.36,565.66,425.84,565.19z M408.53,564.1L408.53,564.1c0.5,0.21,1,0.23,1.52,0.03
			c0.08-0.03,0.18-0.05,0.27-0.05c0.32,0,0.61-0.08,0.87-0.28c0.06-0.05,0.14-0.12,0.2-0.11c0.21,0.02,0.34-0.11,0.51-0.19
			c0.05-0.02,0.16-0.03,0.18,0c0.08,0.1,0.18,0.21,0.19,0.32c0.01,0.13-0.06,0.27-0.1,0.4c0.02,0.01,0.04,0.02,0.06,0.03
			c0.07-0.09,0.14-0.18,0.26-0.31c-0.02,0.15-0.01,0.26-0.05,0.35c-0.09,0.21-0.2,0.41-0.29,0.61c-0.05,0.1-0.06,0.24-0.22,0.24
			c-0.1,0-0.2-0.02-0.3-0.03c-0.16-0.02-0.33-0.07-0.49-0.05c-0.69,0.09-1.39,0.2-2.08,0.31c-0.08,0.01-0.16,0.05-0.23,0.08
			c0.04,0.06,0.08,0.11,0.11,0.17c0.03,0.05,0.05,0.11,0.08,0.16c0.1,0.21,0.21,0.41,0.29,0.63c0.13,0.35,0.34,0.46,0.73,0.41
			c0.86-0.11,1.68-0.32,2.41-0.8c0.3-0.19,0.47-0.44,0.36-0.82c-0.05-0.16-0.07-0.33-0.1-0.5c0.06,0.02,0.08,0.06,0.09,0.09
			c0.16,0.54,0.24,1.1,0.2,1.66c-0.01,0.09-0.02,0.17-0.01,0.26c0.06,0.31-0.02,0.46-0.3,0.6c-0.01-0.13-0.02-0.27-0.04-0.42
			c-0.2,0.14-0.35,0.28-0.52,0.38c-0.46,0.27-0.99,0.38-1.51,0.48c-0.27,0.05-0.29,0.07-0.25,0.4c0.03,0.21,0.2,0.11,0.3,0.1
			c0.36-0.06,0.72-0.14,1.06-0.2c-0.44,0.17-0.93,0.26-1.42,0.31c-0.06,0.01-0.12,0.06-0.18,0.1c0.06,0.05,0.11,0.13,0.18,0.16
			c0.09,0.03,0.2,0.02,0.29,0.02c0.01,0,0.02,0.01,0.02,0.01c-0.03,0.05-0.06,0.09-0.09,0.14c0.39,0.15,1.04-0.09,1.05-0.4
			c-0.23,0.08-0.45,0.16-0.67,0.24c0-0.01,0-0.02-0.01-0.02c0.27-0.14,0.54-0.28,0.77-0.39c0.11,0.03,0.2,0.1,0.27,0.08
			c0.3-0.08,0.6-0.17,0.88-0.3c0.61-0.27,0.95-0.7,0.91-1.42c-0.08-1.47-0.63-2.73-1.62-3.81c-0.09-0.09-0.12-0.23-0.18-0.35
			c0.02-0.01,0.05-0.02,0.07-0.04c0.42,0.43,0.85,0.86,1.1,1.41c0.25,0.54,0.48,1.11,0.66,1.68c0.18,0.57,0.23,1.16,0.17,1.76
			c0.12-0.49,0.12-0.98,0.04-1.46c-0.2-1.33-0.87-2.42-1.78-3.37c-0.12-0.12-0.23-0.21-0.43-0.21c-0.36,0.01-0.34-0.05-0.38,0.37
			c-0.01,0.09,0.02,0.19,0.04,0.31c0.14-0.06,0.26-0.11,0.4-0.17c-0.02,0.24-0.18,0.31-0.31,0.4c-0.05,0.04-0.09,0.09-0.15,0.12
			c-0.1,0.06-0.2,0.12-0.3,0.14c-0.16,0.03-0.33,0-0.48,0.04c-0.14,0.03-0.27,0.11-0.4,0.17c-0.16,0.08-0.3-0.02-0.45-0.03
			c-0.46-0.04-0.93-0.07-1.38,0.08c-0.06,0.02-0.15,0.09-0.15,0.15C408.19,563.93,408.32,564.06,408.53,564.1z M414.59,543.17
			c0.01,0.01,0.02,0.02,0.03,0.03c-0.02,0.05-0.04,0.11-0.06,0.16c-0.17,0.44-0.35,0.89-0.49,1.34c-0.05,0.14-0.1,0.23-0.22,0.32
			c-0.37,0.26-0.45,0.81-0.16,1.14c0.27,0.31,0.73,0.35,1.07,0.08c0.35-0.28,0.43-0.74,0.2-1.08c-0.04-0.06-0.08-0.15-0.06-0.2
			c0.08-0.23,0.16-0.46,0.26-0.68c0.22-0.47,0.47-0.92,0.66-1.4c0.1-0.25,0.34-0.31,0.46-0.51c0.03-0.04,0.1-0.06,0.2-0.11
			c-0.12-0.01-0.19-0.01-0.26-0.01c-0.07-0.3-0.07-0.3-0.38-0.38c-0.04-0.01-0.09-0.01-0.13-0.03c-0.24-0.12-0.33,0.06-0.45,0.21
			c-0.05,0.07-0.13,0.14-0.21,0.18c-0.4,0.22-0.8,0.43-1.19,0.66c-0.28,0.17-0.26,0.19,0.01,0.33c0.02,0.01,0.04,0.04,0.06,0.05
			c0.17,0.06,0.34,0.15,0.51-0.01C414.48,543.22,414.54,543.2,414.59,543.17z M410.51,540.43c-0.66-0.16-1.2,0.04-1.69,0.53
			c0.09,0.03,0.15,0.05,0.2,0.06c-0.02,0.02-0.04,0.05-0.04,0.07c0.06,0.21,0.35,0.34,0.54,0.24c0.27-0.13,0.53-0.26,0.81-0.39
			c-0.02,0.03-0.04,0.07-0.06,0.1c-0.46,0.54-0.75,1.18-1.02,1.83c-0.03,0.07-0.09,0.16-0.16,0.19c-0.42,0.19-0.62,0.65-0.44,1.07
			c0.18,0.42,0.63,0.59,1.04,0.39c0.39-0.19,0.54-0.69,0.32-1.11c-0.03-0.05-0.03-0.14,0-0.19c0.13-0.27,0.24-0.55,0.4-0.8
			c0.32-0.51,0.65-1,0.99-1.5c0.18-0.27,0.18-0.31-0.11-0.44c-0.07-0.03-0.15-0.05-0.2-0.09c-0.13-0.13-0.21-0.04-0.3,0.04
			c-0.09,0.08-0.19,0.16-0.26,0.22c-0.03-0.09-0.06-0.16-0.08-0.22C410.47,540.44,410.49,540.44,410.51,540.43z M424.26,570.35
			c0-0.02,0-0.04,0-0.06c-0.09,0-0.19-0.01-0.28-0.01c-0.09,0-0.2,0.04-0.28,0.01c-0.29-0.1-0.57-0.22-0.86-0.34
			c-0.19-0.08-0.37-0.17-0.55-0.25c-0.01,0.01-0.02,0.03-0.03,0.04c0.03,0.04,0.05,0.09,0.08,0.13c-0.01,0.01-0.03,0.02-0.04,0.03
			c-0.3-0.28-0.6-0.56-0.91-0.85c0.08,0.28,0.25,0.49,0.46,0.67c0.15,0.13,0.27,0.27,0.24,0.5c-0.06-0.02-0.11-0.04-0.16-0.07
			c0.1,0.14,0.23,0.24,0.36,0.33c1,0.73,2.14,1.05,3.36,0.88c1.2-0.16,2.06-0.85,2.55-1.97c0.13-0.3,0.13-0.3-0.15-0.44
			c-0.02-0.01-0.05-0.02-0.07-0.04c-0.2-0.16-0.2-0.16-0.3,0.09c-0.24,0.62-0.62,1.13-1.2,1.46c-0.26,0.15-0.53,0.26-0.68,0.54
			c0,0-0.02,0-0.02-0.01c0.02-0.07,0.03-0.13,0.05-0.22c-0.25,0.02-0.47,0.04-0.67,0.06c0-0.07,0.03-0.14,0-0.17
			c-0.05-0.05-0.13-0.1-0.19-0.1c-0.33,0.01-0.64-0.05-0.95-0.22C424.11,570.36,424.18,570.36,424.26,570.35z M418.08,556.46
			c0,0.02-0.01,0.04-0.01,0.06c0.06,0.04,0.12,0.09,0.18,0.1c0.11,0.01,0.23,0.01,0.34-0.01c0.68-0.1,1.35-0.25,2.03-0.28
			c0.35-0.01,0.64-0.28,1-0.18c0.02,0.01,0.06-0.04,0.09-0.04c0.08-0.01,0.16-0.02,0.24-0.03c0.05,0,0.11,0.02,0.15,0
			c0.2-0.06,0.39-0.19,0.62-0.15c0.03,0,0.07-0.01,0.09-0.03c0.23-0.15,0.48-0.21,0.75-0.26c0.36-0.06,0.7-0.23,1.06-0.32
			c0.18-0.05,0.3-0.16,0.45-0.26c0.2-0.13,0.4-0.26,0.6-0.39c0.02-0.01,0.03-0.04,0.06-0.11c-0.17,0.03-0.3,0.06-0.43,0.08
			c-0.01-0.02-0.01-0.04-0.02-0.06c0.17-0.1,0.33-0.2,0.5-0.3c-0.63,0.18-1.24,0.43-1.86,0.62c-0.67,0.2-1.32,0.5-2.03,0.59
			c-0.4,0.05-0.8,0.16-1.19,0.25c-0.14,0.03-0.27,0.11-0.41,0.16c-0.02,0.01-0.05,0.01-0.07,0.02c-0.1,0.01-0.21-0.01-0.31,0.02
			c-0.55,0.14-1.1,0.28-1.64,0.43C418.21,556.41,418.15,556.44,418.08,556.46z M400.73,558.4c-0.04,0.15-0.1,0.26-0.09,0.37
			c0.06,0.54,0.25,1.05,0.53,1.52c0.11,0.19,0.28,0.24,0.5,0.18c0.21-0.05,0.23-0.21,0.24-0.34c0.12,0.06,0.23,0.17,0.36,0.17
			c0.47,0.03,0.73-0.37,0.52-0.78c-0.1-0.19-0.17-0.39-0.41-0.5c-0.18-0.08-0.29-0.3-0.46-0.43c-0.17-0.14-0.37-0.26-0.56-0.39
			c-0.07,0.22-0.13,0.42-0.19,0.58C401.02,558.66,400.88,558.53,400.73,558.4z M428.72,558.31c-0.06-0.01-0.13-0.02-0.2-0.03
			c-0.34-0.07-0.67-0.14-1.01-0.21c-0.12-0.03-0.23-0.03-0.26,0.12c-0.04,0.2-0.1,0.4-0.09,0.59c0.01,0.29,0.08,0.58,0.01,0.87
			c-0.01,0.04,0.06,0.12,0.11,0.15c0.16,0.09,0.33,0.17,0.49,0.26c0.27,0.15,0.55,0.28,0.79,0.45c0.23,0.16,0.41,0.37,0.63,0.54
			c0.18,0.14,0.38,0.25,0.57,0.38c0.01-0.01,0.02-0.03,0.03-0.04c-0.33-0.27-0.65-0.56-0.99-0.82c-0.15-0.11-0.18-0.22-0.1-0.39
			c0.03-0.05,0.02-0.13,0.02-0.19c-0.01-0.11-0.03-0.23-0.03-0.34c0.01-0.23,0.03-0.46,0.04-0.69
			C428.73,558.74,428.72,558.53,428.72,558.31z M410.87,558.12c0,0.02,0,0.04,0,0.05c0.3-0.2,0.6-0.39,0.91-0.59
			c-0.24-0.15-0.43-0.3-0.65-0.38c-0.46-0.17-0.94-0.31-1.41-0.46c-0.12-0.04-0.19-0.01-0.24,0.1c-0.09,0.2-0.18,0.4-0.27,0.6
			c-0.15,0.34,0.08,0.72,0.45,0.65c0.31-0.06,0.6-0.09,0.91-0.02c0.02,0.01,0.05-0.02,0.08-0.01
			C410.73,558.07,410.8,558.1,410.87,558.12z M422.49,565.06c-0.25,0.09-0.43,0.16-0.62,0.23c-0.04-0.13-0.16-0.17-0.26-0.08
			c-0.1,0.1-0.17,0.07-0.24-0.01c-0.08-0.08-0.13-0.07-0.18,0.03c-0.03,0.06-0.06,0.12-0.09,0.18c-0.35,0.84-0.3,1.67,0.08,2.42
			c0.05-0.16,0.12-0.36,0.19-0.55c0.02,0.01,0.03,0.02,0.04,0.03c0.05-0.06,0.09-0.12,0.14-0.18c0.07-0.08,0.15-0.16,0.23-0.23
			c0.04-0.03,0.08-0.06,0.14-0.1c-0.18-0.1-0.22-0.2-0.06-0.33c0.02-0.02,0.04-0.06,0.04-0.08c-0.03-0.12,0.03-0.18,0.13-0.23
			c0.04-0.02,0.04-0.09,0.09-0.2c0.07-0.1,0.17-0.24,0.27-0.4c-0.04-0.03-0.09-0.06-0.15-0.11c0.04-0.02,0.06-0.03,0.09-0.04
			c0.03-0.01,0.06-0.02,0.12-0.04c-0.06-0.01-0.08-0.02-0.11-0.03c-0.03-0.01-0.05-0.02-0.07-0.02
			C422.33,565.23,422.39,565.16,422.49,565.06z M426.48,557.78c-0.11-0.04-0.2-0.05-0.27-0.09c-0.56-0.28-1.19-0.19-1.68,0.23
			c-0.14,0.12-0.19,0.28-0.15,0.44c0.07,0.3,0.17,0.59,0.25,0.88c0.11-0.02,0.22-0.05,0.28-0.06c0.11,0.13,0.2,0.24,0.27,0.33
			C425.41,558.78,425.86,558.23,426.48,557.78z M400.3,533.76c0.14-0.14,0.34-0.33,0.53-0.54c0.02-0.03-0.01-0.12-0.03-0.17
			c-0.06-0.17-0.18-0.33-0.17-0.49c0-0.23-0.11-0.25-0.27-0.25c-0.2,0-0.4,0.01-0.59,0.01c-0.47-0.01-0.81,0.38-0.73,0.84
			C399.1,533.6,399.76,533.96,400.3,533.76z M403.72,571.11c0.05-0.04,0.09-0.09,0.13-0.1c0.4-0.12,0.6-0.44,0.52-0.84
			c-0.02-0.08-0.04-0.21-0.09-0.23c-0.2-0.07-0.25-0.26-0.35-0.4c-0.25-0.35-0.82-0.37-1.06-0.02c-0.14,0.21-0.18,0.45-0.11,0.7
			C402.91,570.7,403.3,570.93,403.72,571.11z M426.42,569.85c0.86-0.64,1.19-1.64,0.72-2.41c-0.03,0.11-0.05,0.21-0.08,0.29
			c-0.03,0.06-0.07,0.16-0.12,0.17c-0.25,0.06-0.4,0.21-0.58,0.39c-0.23,0.23-0.32,0.47-0.28,0.78c0.02,0.17-0.05,0.26-0.23,0.28
			c-0.07,0.01-0.14,0.05-0.2,0.07c0.01,0.02,0.01,0.04,0.02,0.06c0.04,0,0.09,0.01,0.13,0.01c0.16-0.01,0.3-0.04,0.48,0.02
			C426.46,569.56,426.52,569.61,426.42,569.85z M408.14,562.66c-0.05-0.1-0.09-0.16-0.12-0.23c-0.1-0.24-0.2-0.48-0.31-0.71
			c-0.15-0.29-0.21-0.27-0.4,0.01c-0.2,0.28-0.29,0.59-0.39,0.91c-0.16,0.55-0.16,0.5,0.22,0.88c0.02,0.02,0.04,0.04,0.06,0.05
			c0.17,0.13,0.19,0.12,0.28-0.07c0.06-0.14,0.1-0.3,0.2-0.41C407.82,562.93,407.99,562.8,408.14,562.66z M405.34,561.77
			c0.13,0.12,0.28,0.27,0.43,0.41c0.23,0.22,0.25,0.2,0.45-0.02c0.27-0.29,0.56-0.56,0.85-0.83c0.14-0.13,0.14-0.2-0.02-0.28
			c-0.32-0.16-0.66-0.23-1.02-0.19c-0.07,0.01-0.16,0.06-0.2,0.12C405.66,561.24,405.51,561.5,405.34,561.77z M427.57,556.27
			c-0.15-0.12-1.42,0.21-1.83,0.47c0.08,0.22,0.29,0.04,0.41,0.12c0.04,0.13,0.08,0.26,0.13,0.43c0.26-0.06,0.52-0.11,0.78-0.17
			c-0.01-0.01-0.02-0.02-0.03-0.03c-0.06,0.07-0.11,0.14-0.17,0.21c0.02,0.02,0.04,0.04,0.06,0.05c0.14-0.09,0.37-0.05,0.39-0.3
			c0-0.02,0.05-0.04,0.07-0.06c0.15-0.11,0.3-0.23,0.44-0.34c-0.06-0.12-0.1-0.21-0.14-0.3c-0.12,0.02-0.23,0.05-0.34,0.07
			c0-0.01-0.01-0.01-0.01-0.02C427.42,556.36,427.49,556.32,427.57,556.27z M404.36,572.66c0.19,0.05,0.27,0.14,0.13,0.32
			c-0.1,0.12-0.16,0.26-0.23,0.38c1.11-0.07,1.7-1.47,1.41-2.02C405.23,571.77,404.81,572.2,404.36,572.66z M403.84,568.27
			c-0.24-0.18-0.47-0.2-0.72-0.17c-0.58,0.05-1.04,0.46-1.11,1.04c-0.08,0.69,0.15,1.3,0.56,1.85c0.46,0.63,1.03,0.95,1.84,0.86
			c0.66-0.07,1.18-0.78,0.99-1.47c-0.11,0.56-0.45,0.83-0.98,0.92c0.18,0,0.35-0.01,0.5-0.08c0.15-0.07,0.28-0.21,0.41-0.31
			c-0.08,0.6-0.82,1.03-1.45,0.83c-1.03-0.32-1.61-1.04-1.75-2.09c-0.07-0.52,0.09-0.97,0.55-1.28c0.2-0.13,0.42-0.17,0.65-0.18
			c-0.47,0.29-0.6,0.45-0.6,0.71C403.02,568.4,403.2,568.3,403.84,568.27z M429.27,565.08c0.09,0.07,0.2,0.11,0.22,0.17
			c0.08,0.23,0.22,0.45,0.15,0.71c-0.01,0.05-0.01,0.12,0.02,0.15c0.12,0.13,0.25,0.26,0.37,0.37c-0.1,0.19-0.22,0.25-0.41,0.29
			c-0.32,0.07-0.63,0.25-0.94,0.38c0.01,0.02,0.01,0.04,0.02,0.06c0.07-0.02,0.14-0.04,0.21-0.06c0.14-0.05,0.27-0.1,0.41-0.14
			c0.2-0.06,0.41-0.1,0.61-0.16c0.02,0,0.03-0.03,0.04-0.04c0.05-0.08,0.12-0.15,0.16-0.23c0.05-0.11,0.1-0.22,0.1-0.33
			c-0.01-0.27,0.06-0.54-0.08-0.81c-0.1-0.2-0.14-0.44-0.21-0.7C429.7,564.85,429.49,564.96,429.27,565.08z M403.32,572.06
			c-0.07-0.13-0.1-0.27-0.19-0.35c-0.3-0.26-0.63-0.49-0.8-0.88c-0.09-0.21-0.23-0.41-0.35-0.61c-0.08-0.13-0.09-0.32-0.32-0.38
			c0.02,0.14,0.07,0.26,0.05,0.37c-0.02,0.1-0.11,0.19-0.18,0.3c0.23,0.01,0.29,0.11,0.17,0.3c-0.02,0.03,0.02,0.1,0.05,0.14
			c0.1,0.13,0.2,0.27,0.33,0.36c0.25,0.17,0.53,0.31,0.8,0.46C403.04,571.87,403.17,571.96,403.32,572.06z M422.73,565.08
			c0.01,0.01,0.02,0.01,0.03,0.02c0.05-0.08,0.1-0.16,0.17-0.26c-0.17-0.04-0.31-0.06-0.45-0.09c0-0.01,0.01-0.02,0.01-0.03
			c0.23-0.02,0.47-0.04,0.7-0.07c0-0.02,0-0.05,0-0.07c-0.09-0.02-0.18-0.04-0.25-0.06c0.03-0.06,0.05-0.12,0.08-0.17
			c0.03-0.05,0.06-0.1,0.09-0.15c0.03-0.05,0.06-0.1,0.09-0.15c-0.06-0.04-0.14-0.11-0.19-0.1c-0.28,0.06-0.57,0.11-0.84,0.22
			c-0.12,0.05-0.32,0.12-0.28,0.34c0.25-0.03,0.36,0.02,0.46,0.23c-0.13-0.03-0.23-0.07-0.34-0.09c-0.05-0.01-0.1,0.01-0.14,0.01
			c0.02,0.05,0.04,0.11,0.08,0.13c0.24,0.13,0.5,0.21,0.78,0.14c0.02,0,0.03,0.01,0.06,0.01
			C422.76,564.99,422.74,565.04,422.73,565.08z M428.58,564.46c-0.29-0.24-0.34-0.66-0.76-0.74c-0.13-0.03-0.25-0.15-0.38-0.21
			c-0.03-0.01-0.14,0.04-0.13,0.06c0.01,0.14,0.02,0.28,0.08,0.4c0.09,0.18,0.22,0.34,0.34,0.51c0.22,0.32,0.25,0.32,0.59,0.14
			C428.39,564.59,428.46,564.54,428.58,564.46z M431.96,551.75c0.61-0.02,2.43-1,2.55-1.38
			C434.31,550.33,432.12,551.51,431.96,551.75z M422.04,567.66c0.02,0.4,0.31,0.61,0.57,0.83c0.09,0.07,0.2,0.14,0.31,0.16
			c0.1,0.02,0.21-0.03,0.31-0.05c-0.04-0.08-0.06-0.16-0.11-0.23c-0.18-0.23-0.37-0.45-0.55-0.68
			C422.37,567.44,422.3,567.43,422.04,567.66z M426.64,559.64c0.12-0.56,0.25-1.12,0.37-1.68c-0.02-0.01-0.04-0.02-0.06-0.02
			c-0.05,0.04-0.12,0.07-0.15,0.12c-0.2,0.38-0.44,0.75-0.58,1.15c-0.13,0.36-0.09,0.38,0.33,0.44
			C426.56,559.65,426.58,559.64,426.64,559.64z M404.32,562.29c0.01-0.02,0.03-0.03,0.04-0.05c-0.05-0.06-0.09-0.16-0.14-0.16
			c-0.23,0-0.22-0.16-0.27-0.31c-0.05-0.17,0.02-0.18,0.15-0.19c0.12,0,0.25-0.01,0.37-0.02c0-0.02,0-0.03,0-0.05
			c-0.06-0.01-0.12-0.01-0.17-0.02c0.2-0.05,0.39-0.1,0.49-0.28c-0.01-0.02-0.02-0.05-0.03-0.07c-0.51,0.12-1.02,0.24-1.55,0.37
			c0.09,0.18,0.21,0.23,0.36,0.19c0.16-0.05,0.22,0.01,0.24,0.16c0.01,0.06,0.03,0.11,0.05,0.17c-0.09,0.03-0.18,0.05-0.26,0.08
			c0,0.02,0.01,0.03,0.01,0.05c0.1-0.01,0.19-0.02,0.29-0.02c0.05,0,0.16,0.02,0.16,0.04C404.06,562.39,404.23,562.24,404.32,562.29
			z M434.68,554.44c-0.39,0.1-0.7,0.29-0.9,0.59c-0.21,0.32-0.47,0.56-0.78,0.77c-0.3,0.21-0.56,0.48-0.78,0.81
			C432.5,556.51,434.5,554.75,434.68,554.44z M403.58,529.36c0.13-0.02,0.23-0.04,0.32-0.05c0.18-0.03,0.18-0.04,0.2,0.1
			c-0.17,0.01-0.34,0.01-0.51,0.04c-0.07,0.01-0.14,0.07-0.2,0.1c0.05,0.06,0.1,0.17,0.16,0.18c0.12,0.02,0.25-0.04,0.37-0.01
			c0.16,0.04,0.19-0.04,0.25-0.15c0.02-0.04,0.09-0.07,0.14-0.07c0.15,0,0.31,0.01,0.46,0.01c-0.01-0.21,0.03-0.43-0.21-0.6
			c-0.01,0.11-0.02,0.2-0.02,0.31c-0.17-0.01-0.33,0.02-0.47-0.03C403.81,529.1,403.75,529.1,403.58,529.36z M400.39,570.64
			c0.04-0.11,0.05-0.24,0.12-0.3c0.16-0.14,0.34-0.24,0.49-0.34c0-0.12,0-0.2,0-0.29c-0.08-0.02-0.17-0.03-0.3-0.06
			c0.09-0.06,0.13-0.09,0.17-0.12c-0.01-0.02-0.01-0.04-0.02-0.06c-0.16,0.03-0.32,0.05-0.49,0.08c0-0.09,0-0.17,0-0.24
			c-0.02,0-0.03,0-0.05,0C400.23,569.76,400.24,570.2,400.39,570.64z M410.5,558.89c0.95-0.24,1.91-0.49,2.89-0.74
			C413.11,557.96,410.77,558.56,410.5,558.89z M427.34,563.01c-0.11-0.04-0.18-0.06-0.25-0.08c-0.21-0.06-0.41-0.12-0.63-0.17
			c-0.04-0.01-0.12,0.05-0.14,0.09c-0.02,0.05-0.01,0.13,0.03,0.17c0.14,0.14,0.3,0.27,0.48,0.43
			C426.99,563.31,427.16,563.16,427.34,563.01z M406.09,567.65c-0.02,0.02-0.04,0.04-0.06,0.06c0.16,0.3,0.31,0.6,0.48,0.89
			c0.03,0.05,0.13,0.07,0.19,0.06c0.03-0.01,0.06-0.11,0.07-0.17c0.01-0.06,0.01-0.13,0-0.19c0-0.04,0-0.1-0.03-0.12
			c-0.15-0.15-0.3-0.3-0.46-0.45C406.23,567.7,406.15,567.68,406.09,567.65z M427.02,544.86c-0.23-0.04-0.43-0.05-0.61-0.11
			c-0.29-0.09-0.78,0.14-0.88,0.47c0.08-0.02,0.15-0.03,0.22-0.05c0.25-0.07,0.49-0.15,0.74-0.21c0.19-0.05,0.24,0,0.22,0.23
			C426.82,545.06,426.91,544.97,427.02,544.86z M396.98,541.1c-0.36-0.15-0.39-0.51-0.5-0.8c-0.19-0.5-0.34-1.03-0.5-1.54
			c-0.07-0.2-0.14-0.4-0.22-0.6c-0.02,0.01-0.04,0.01-0.06,0.02c0.11,0.35,0.21,0.69,0.32,1.04c0.17,0.51,0.34,1.01,0.52,1.52
			C396.62,540.93,396.71,541.12,396.98,541.1z M428.54,563.12c-0.01-0.22-0.34-0.39-0.56-0.28c0.12,0.22,0.23,0.44,0.35,0.65
			c0-0.01,0.01-0.04,0-0.02c0.1,0,0.2,0.02,0.26-0.01c0.07-0.05,0.11-0.15,0.16-0.22C428.69,563.2,428.62,563.17,428.54,563.12z
			 M407.36,546.3c-0.07-0.07-0.16-0.12-0.21-0.2c-0.05-0.07-0.07-0.17-0.1-0.25c-0.02,0.08-0.02,0.15,0,0.21
			c0.02,0.06,0.06,0.12,0.11,0.21c-0.19-0.18-0.23-0.4-0.11-0.58c0.07-0.11,0.03-0.17-0.07-0.21c-0.12-0.05-0.21,0-0.23,0.13
			c-0.05,0.25,0.01,0.49,0.15,0.7C407.03,546.48,407.25,546.53,407.36,546.3z M398.08,530.15c-0.01-0.02-0.02-0.04-0.03-0.06
			c-0.09,0.04-0.17,0.11-0.26,0.13c-0.14,0.03-0.14,0.1-0.12,0.21c0.04,0.17,0.04,0.36,0.1,0.52c0.07,0.19,0.17,0.38,0.26,0.56
			c0.03-0.01,0.06-0.02,0.09-0.03c-0.07-0.25-0.12-0.52-0.22-0.76c-0.09-0.22-0.09-0.37,0.11-0.5
			C398.02,530.21,398.05,530.18,398.08,530.15z M421.64,561.41c0.32-0.25,0.63-0.49,0.94-0.73c-0.01-0.02-0.03-0.04-0.04-0.06
			c-0.31,0.17-0.61,0.34-0.92,0.51C421.46,561.22,421.48,561.31,421.64,561.41z M425.65,563.7c-0.16-0.05-0.28-0.13-0.35-0.1
			c-0.11,0.06-0.17,0.19-0.26,0.29c0.1,0.08,0.19,0.21,0.3,0.22C425.66,564.15,425.44,563.82,425.65,563.7z M430.51,565.36
			c0.01,0,0.03,0,0.04,0.01c0.03-0.08,0.08-0.16,0.07-0.22c-0.04-0.2-0.1-0.4-0.17-0.59c-0.01-0.04-0.09-0.06-0.14-0.1
			c-0.02,0.06-0.08,0.13-0.07,0.18C430.33,564.88,430.42,565.12,430.51,565.36z M427.42,566.6c0.06-0.04,0.1-0.05,0.12-0.08
			c0.06-0.06,0.15-0.13,0.15-0.19c0-0.12-0.1-0.17-0.23-0.15c-0.02,0-0.05-0.01-0.08-0.01c-0.07,0.01-0.14,0.03-0.21,0.04
			c0.02,0.09,0.02,0.19,0.07,0.27C427.27,566.56,427.37,566.58,427.42,566.6z M433.96,558.08c0.16,0.22,0.31,0.42,0.46,0.62
			c0.05,0.07,0.1,0.15,0.2,0.06c0.09-0.08,0.07-0.15-0.01-0.22c-0.17-0.16-0.34-0.33-0.51-0.49
			C434.09,558.04,434.03,558.07,433.96,558.08z M406.23,566.43c-0.06-0.22-0.82-0.76-1.04-0.73c0.27,0.22,0.52,0.42,0.73,0.59
			C406.05,566.35,406.13,566.39,406.23,566.43z M427.32,566.9c0,0.02-0.01,0.04-0.01,0.06c0.09,0,0.18,0.03,0.26,0.01
			c0.03-0.01,0.08-0.14,0.06-0.15c-0.07-0.07-0.16-0.16-0.24-0.15c-0.09,0.01-0.19,0.1-0.25,0.19c-0.03,0.04,0.01,0.15,0.04,0.22
			c0.03,0.06,0.09,0.1,0.18,0.2C427.35,567.12,427.34,567.01,427.32,566.9z M421.47,563.1c0.04,0.14,0.08,0.3,0.14,0.45
			c0.01,0.04,0.09,0.09,0.12,0.08c0.08-0.03,0.15-0.08,0.21-0.13c0.01-0.01-0.01-0.08-0.04-0.12c-0.08-0.1-0.16-0.2-0.25-0.3
			C421.62,563.09,421.56,563.09,421.47,563.1z M426.85,564.89c0.26,0.38,0.28,0.39,0.48,0.17c-0.04-0.06-0.08-0.12-0.12-0.17
			c-0.04-0.06-0.09-0.12-0.15-0.2C426.98,564.77,426.91,564.83,426.85,564.89z M426.18,564.5c-0.18,0.06-0.21,0.13-0.11,0.23
			c0.07,0.07,0.13,0.15,0.2,0.21c0.04,0.03,0.14,0.03,0.17,0c0.13-0.15,0-0.26-0.1-0.36C426.29,564.54,426.21,564.52,426.18,564.5z
			 M404.59,561.48c0.12,0.18,0.09,0.24-0.21,0.46c0.17-0.07,0.35-0.14,0.5-0.25c0.06-0.05,0.05-0.19,0.08-0.29
			c-0.07,0.01-0.15,0.01-0.22,0.02C404.68,561.44,404.64,561.46,404.59,561.48z M423.79,563.56c0.24,0.18,0.4,0.38,0.69,0.36
			C424.46,563.7,424.21,563.55,423.79,563.56z M427.29,565.77c-0.07,0-0.13,0-0.19,0c-0.06,0-0.12-0.01-0.19-0.01
			c0.07,0.24,0.29,0.3,0.63,0.19c-0.07-0.12-0.15-0.24-0.22-0.36c-0.02,0.01-0.04,0.02-0.06,0.03
			C427.27,565.67,427.27,565.71,427.29,565.77z M428.25,565.78c0.01,0.01,0.01,0.02,0.02,0.02c0.06-0.03,0.13-0.07,0.19-0.09
			c0.07-0.02,0.14-0.02,0.21-0.03c0.26-0.06,0.36-0.19,0.29-0.42C428.72,565.44,428.49,565.61,428.25,565.78z M405.71,571.02
			c0.01,0,0.02,0,0.02,0c-0.03-0.19-0.05-0.37-0.07-0.48c0.1-0.1,0.17-0.15,0.23-0.21c-0.07-0.06-0.14-0.12-0.21-0.18
			c-0.03,0.04-0.07,0.09-0.09,0.12c-0.03-0.05-0.07-0.12-0.13-0.21C405.55,570.4,405.63,570.71,405.71,571.02z M405.98,567.26
			c-0.17-0.08-0.28-0.15-0.4-0.19c-0.01,0-0.06,0.11-0.09,0.16c0.12,0.05,0.12,0.28,0.3,0.22
			C405.84,567.44,405.88,567.36,405.98,567.26z M403.88,530.2c0.08,0.13,0.15,0.25,0.22,0.35c0.03,0.04,0.1,0.07,0.15,0.1
			c0.02-0.06,0.07-0.11,0.07-0.17C404.34,530.3,404.19,530.2,403.88,530.2z M405.8,570.06c0.02-0.05,0.05-0.13,0.09-0.21
			c-0.12-0.04-0.23-0.08-0.35-0.12c-0.02,0.07-0.06,0.14-0.04,0.2C405.53,570.03,405.6,570.12,405.8,570.06z M400.71,528.79
			c-0.22-0.07-1.14,0.38-1.2,0.54C399.92,529.15,400.32,528.97,400.71,528.79z M405.51,569.35c-0.13,0.02-0.24,0.03-0.36,0.05
			c0.01,0.06,0.02,0.12,0.03,0.14c0.2,0.01,0.38,0.02,0.61,0.03c-0.08-0.15-0.14-0.26-0.2-0.36c-0.02,0.01-0.03,0.01-0.05,0.02
			C405.53,569.27,405.51,569.32,405.51,569.35z M407.9,568.96c0.26-0.04,0.16-0.19,0.13-0.32c-0.05-0.18-0.15-0.22-0.3-0.14
			C407.79,568.66,407.85,568.81,407.9,568.96z M403.43,567.13c-0.17,0.06-0.26,0.2-0.18,0.32c0.05,0.07,0.18,0.16,0.24,0.14
			c0.12-0.04,0.1-0.16,0.04-0.26C403.49,567.26,403.46,567.2,403.43,567.13z M404.84,566.25c-0.09-0.02-0.18-0.04-0.27-0.08
			c-0.06-0.02-0.11-0.08-0.16-0.11c-0.04-0.02-0.1-0.02-0.14,0c-0.03,0.02-0.07,0.08-0.06,0.11c0.01,0.04,0.07,0.07,0.11,0.09
			c0.07,0.03,0.16,0.03,0.23,0.07C404.7,566.42,404.8,566.38,404.84,566.25z M398.14,540.57c-0.21-0.27-0.56-0.42-0.47-0.83
			c-0.06,0.03-0.12,0.07-0.13,0.12C397.51,540.08,397.85,540.5,398.14,540.57z M428.5,566.4c0,0.02,0,0.05,0.01,0.07
			c0.35-0.05,0.7-0.09,1.05-0.14c-0.01-0.03-0.01-0.07-0.02-0.1C429.2,566.29,428.85,566.34,428.5,566.4z M404.34,568.25
			c0.12-0.19,0.04-0.4-0.15-0.44c-0.05-0.01-0.12,0.04-0.17,0.08c-0.02,0.01-0.01,0.1,0.02,0.12
			C404.14,568.1,404.24,568.17,404.34,568.25z M430.65,562.4c0.13-0.24-0.08-0.8-0.37-1.02
			C430.39,561.68,430.52,562.04,430.65,562.4z M406.64,566.96c0.15,0.16,0.31,0.33,0.45,0.48c0.04-0.24-0.08-0.43-0.34-0.53
			c0,0.03,0.01,0.06,0.01,0.09C406.71,566.98,406.66,566.97,406.64,566.96z M429.87,568.66c0.16-0.1,0.21-0.34,0.14-0.45
			c-0.01-0.02-0.04-0.05-0.06-0.04c-0.03,0-0.08,0.03-0.08,0.05C429.86,568.37,429.87,568.52,429.87,568.66z M428.65,544.18
			c-0.11,0.08-0.2,0.15-0.32,0.24c-0.04,0.07-0.1,0.16-0.18,0.3C428.46,544.57,428.68,544.33,428.65,544.18z M424.35,569.24
			c-0.01,0.02-0.03,0.04-0.04,0.06c0.09,0.08,0.18,0.16,0.28,0.23c0.03,0.02,0.1-0.03,0.15-0.04c-0.03-0.04-0.04-0.1-0.08-0.12
			C424.56,569.31,424.45,569.28,424.35,569.24z M404.37,569.73c0.05,0.2,0.09,0.38,0.13,0.58
			C404.67,570.06,404.65,569.99,404.37,569.73z M434.87,558.5c-0.11-0.12-0.2-0.22-0.29-0.31c-0.02-0.02-0.07-0.02-0.1-0.01
			c-0.01,0-0.02,0.05-0.02,0.07C434.48,558.36,434.7,558.51,434.87,558.5z M411.98,557.67c-0.13-0.07-0.59,0.21-0.7,0.4
			C411.5,557.94,411.74,557.81,411.98,557.67z M403.23,572.16c-0.02,0.01-0.04,0.02-0.06,0.03c0.05,0.09,0.09,0.18,0.15,0.26
			c0.02,0.03,0.11-0.01,0.17-0.01c-0.02-0.05-0.03-0.11-0.07-0.14C403.36,572.23,403.29,572.2,403.23,572.16z M427.74,566.5
			c0,0.04,0.01,0.08,0.01,0.12c0.18-0.03,0.35-0.05,0.53-0.08c0-0.02-0.01-0.04-0.01-0.06C428.1,566.49,427.92,566.49,427.74,566.5z
			 M404.04,569.36c-0.03-0.26-0.22-0.35-0.42-0.21C403.76,569.22,403.89,569.29,404.04,569.36z M429.14,544.29
			c-0.3-0.1-0.28,0.13-0.37,0.24c0.01,0.02,0.03,0.03,0.04,0.05C428.91,544.48,429.01,544.4,429.14,544.29z M430.25,561.92
			c-0.02,0.02-0.05,0.04-0.07,0.06c0.1,0.11,0.19,0.22,0.29,0.33c0.02-0.02,0.04-0.03,0.06-0.05
			C430.44,562.15,430.34,562.03,430.25,561.92z M399.05,540.59c0.2-0.18,0.24-0.36,0.2-0.57
			C399.18,540.19,399.12,540.36,399.05,540.59z M411.2,569.04c-0.01-0.03-0.02-0.05-0.02-0.08c-0.18,0.05-0.36,0.1-0.54,0.14
			c0,0.02,0.01,0.04,0.01,0.06C410.84,569.13,411.02,569.08,411.2,569.04z M397.47,541.2c0.17-0.21,0.17-0.27-0.01-0.43
			C397.46,540.92,397.47,541.07,397.47,541.2z M423.7,563.9c-0.01,0.04-0.01,0.08-0.02,0.12c0.15,0.01,0.29,0.02,0.44,0.03
			c0-0.02,0-0.04,0.01-0.06C423.99,563.96,423.85,563.93,423.7,563.9z M427.38,545c0.13-0.09,0.24-0.16,0.35-0.23
			C427.54,544.72,427.44,544.78,427.38,545z M426.19,569.99c-0.08-0.05-0.14-0.11-0.16-0.1c-0.07,0.05-0.12,0.11-0.18,0.17
			c0.01,0.01,0.02,0.02,0.03,0.04C425.97,570.07,426.05,570.04,426.19,569.99z M427.94,567.31c0,0.02,0.01,0.05,0.01,0.07
			c0.16-0.04,0.32-0.08,0.48-0.12c0-0.02-0.01-0.04-0.01-0.06C428.26,567.23,428.1,567.27,427.94,567.31z"/>
		<path d="M405.03,535.01c0.15-0.06,0.3-0.13,0.47-0.2c-0.31,0.61-0.12,1.16,0.19,1.67c0.41,0.68,0.96,1.26,1.53,1.8
			c0.19,0.18,0.39,0.33,0.59,0.49c0.04,0.04,0.08,0.08,0.17,0.16c-1.28,0.35-2.43,0.85-3.48,1.61c-0.21-0.15-0.24-0.38-0.29-0.6
			c0-0.01,0-0.03,0.01-0.04c0.3-0.21,0.4-0.62,0.85-0.68c0.46-0.07,0.9-0.25,1.32-0.37c0.02-0.12,0.03-0.2,0.04-0.27
			c-0.07-0.01-0.13-0.02-0.23-0.03c0.05-0.05,0.08-0.08,0.14-0.13c-0.12-0.02-0.2-0.03-0.3-0.05c0.04-0.05,0.08-0.1,0.14-0.15
			c-0.03-0.04-0.07-0.09-0.12-0.15c0.01-0.01,0.03-0.04,0.08-0.09c-0.1,0-0.16,0.01-0.24,0.01c-0.03-0.11-0.06-0.22-0.09-0.33
			c-0.07,0.02-0.14,0.04-0.22,0.06c0.06-0.16,0.11-0.3,0.17-0.45c-0.41,0.17-0.82,0.4-1.14,0.75c-0.2,0.22-0.4,0.41-0.7,0.48
			c-0.06,0.01-0.12,0.06-0.18,0.09c-0.26,0.14-0.32,0.12-0.43-0.17c-0.1-0.25-0.06-0.37,0.13-0.54c0.21-0.19,0.39-0.41,0.61-0.59
			c0.09-0.08,0.22-0.12,0.35-0.15c0.21-0.05,0.43-0.08,0.65-0.12c-0.02-0.04-0.07-0.09-0.06-0.11c0.12-0.15,0.04-0.3,0.01-0.45
			c-0.01-0.02,0.05-0.06,0.09-0.1c-0.04-0.04-0.08-0.09-0.13-0.14c0.1-0.04,0.2-0.07,0.36-0.13c-0.22,0-0.39-0.01-0.58-0.01
			c0.03-0.06,0.06-0.1,0.08-0.14c-0.05-0.03-0.1-0.06-0.15-0.1c0.04-0.04,0.07-0.08,0.11-0.12c-0.02-0.01-0.04-0.02-0.04-0.01
			c-0.31,0.16-0.62,0.31-0.93,0.47c-0.09,0.04-0.17,0.11-0.26,0.14c-0.27,0.1-0.54,0.2-0.82,0.29c-0.06,0.02-0.17-0.01-0.19-0.05
			c-0.08-0.17-0.14-0.36-0.21-0.55c0.89-0.16,1.74-0.29,2.54-0.66c-0.05,0.01-0.1,0.01-0.16,0.02c-0.01-0.01-0.01-0.02-0.02-0.03
			c0.17-0.09,0.33-0.18,0.55-0.29c-0.1-0.01-0.14-0.01-0.19-0.02C405.04,535.03,405.04,535.02,405.03,535.01z"/>
		<path d="M407.69,545.95c0.15-0.11,0.16-0.19,0.01-0.3c-0.12-0.09-0.22-0.19-0.17-0.37c0.02-0.05-0.05-0.15-0.1-0.19
			c-0.14-0.1-0.23-0.2-0.15-0.38c0.02-0.04-0.03-0.13-0.07-0.15c-0.14-0.09-0.3-0.16-0.17-0.38c0.02-0.03-0.06-0.13-0.12-0.17
			c-0.12-0.08-0.2-0.16-0.16-0.33c0.01-0.06-0.06-0.17-0.12-0.22c-0.11-0.09-0.19-0.18-0.14-0.33c0-0.01,0.01-0.03,0-0.04
			c-0.18-0.22,0.03-0.37,0.08-0.55c0.04-0.15,0.02-0.32,0.03-0.48c0-0.05-0.02-0.13,0.01-0.16c0.3-0.32,0.59-0.66,0.92-0.95
			c0.29-0.26,0.63-0.46,0.94-0.69c0.03-0.02,0.05-0.04,0.08-0.08c-0.05,0-0.09,0.01-0.12,0.01c0.05-0.06,0.11-0.12,0.15-0.18
			c-0.07-0.06-0.13-0.11-0.21-0.18c-0.06,0.01-0.15,0.02-0.25,0.03c0-0.02-0.01-0.03-0.01-0.05c0.08-0.04,0.16-0.07,0.24-0.11
			c-0.01-0.1-0.01-0.2-0.02-0.29c-0.12,0.06-0.37-0.09-0.42-0.28c-0.09,0.01-0.19,0.02-0.28,0.03c0.12-0.18,0.16-0.15,0.41-0.05
			c0.39,0.16,0.66,0.46,1,0.68c0.08,0.05,0.15,0.13,0.24,0.2c-0.07,0.05-0.13,0.1-0.19,0.14c0,0.02-0.01,0.04-0.01,0.06
			c0.05-0.01,0.09-0.01,0.14-0.02c0,0.03,0,0.05,0,0.08c-0.18,0.07-0.36,0.13-0.56,0.2c0,0.01,0.01,0.05,0.02,0.12
			c-0.06-0.02-0.11-0.04-0.18-0.07c0,0.05-0.01,0.1-0.01,0.18c-0.07-0.03-0.11-0.06-0.22-0.11c0.08,0.15,0.14,0.24,0.22,0.39
			c-0.1-0.05-0.16-0.09-0.24-0.13c0.01,0.08,0.01,0.14,0.02,0.24c-0.07-0.05-0.11-0.08-0.16-0.12c0,0.04,0,0.07,0,0.14
			c-0.05-0.11-0.08-0.18-0.11-0.25c-0.16,0.05-0.24,0.14-0.19,0.35c0.03,0.14-0.03,0.3-0.04,0.45c-0.03,0.31,0,0.62,0.15,0.9
			c0.02,0.03,0.02,0.08,0,0.11c-0.1,0.16-0.15,0.35-0.36,0.44c-0.31,0.14-0.45,0.53-0.36,0.87c0.11,0.41,0.38,0.63,0.77,0.63
			c0.03,0.09,0.07,0.17,0.09,0.25c0.01,0.06,0.03,0.13,0.01,0.18c-0.07,0.14-0.07,0.26,0.02,0.4c0.03,0.05,0.04,0.13,0.02,0.18
			c-0.07,0.15-0.07,0.28,0.03,0.42c0.03,0.04,0.01,0.11,0.02,0.18c-0.1,0-0.18,0-0.22,0C407.83,546.1,407.76,546.02,407.69,545.95
			C407.68,545.94,407.69,545.95,407.69,545.95z"/>
		<path d="M435.42,564.27c0.05,1.49-1.03,3.07-2.47,3.47c0-0.15-0.05-0.26-0.26-0.18c0.02-0.37,0.04-0.72,0.06-1.12
			c0.35-0.13,0.73-0.26,1.1-0.41c0.14-0.05,0.24-0.18,0.37-0.25c0.52-0.28,0.81-0.76,1.11-1.23
			C435.39,564.49,435.39,564.39,435.42,564.27z"/>
		<path d="M412.8,539.63c-0.37-0.11-0.69-0.3-0.97-0.56c-0.11-0.1-0.18-0.25-0.28-0.37c-0.05-0.05-0.13-0.08-0.24-0.15
			c0.16-0.02,0.27-0.03,0.38-0.05c0.01-0.01,0.02-0.03,0.02-0.04c-0.15-0.11-0.29-0.25-0.45-0.32c-0.11-0.05-0.24,0.01-0.19,0.21
			c0.05,0.02,0.11,0.03,0.16,0.05c0,0.02-0.01,0.05-0.01,0.07c-0.2-0.02-0.4-0.03-0.59-0.08c-0.2-0.06-0.39-0.16-0.58-0.26
			c-0.31-0.15-0.62-0.33-0.94-0.47c-0.14-0.06-0.07-0.17-0.13-0.24c0.07-0.02,0.15-0.07,0.21-0.06c0.54,0.11,1.07,0.22,1.6,0.35
			c0.15,0.04,0.27,0.16,0.42,0.25c0.03-0.03,0.07-0.07,0.11-0.12c0.01,0,0.02,0.01,0.03,0.01c-0.02,0.04-0.03,0.09-0.06,0.17
			c0.31-0.16,0.43,0.1,0.59,0.22c0.68,0.52,1.34,1.05,2.01,1.59c0.21,0.17,0.42,0.34,0.63,0.5c0,0.02-0.01,0.04-0.01,0.06
			c-0.1,0-0.21,0.02-0.29-0.02c-0.48-0.22-0.95-0.46-1.42-0.7C412.79,539.67,412.8,539.65,412.8,539.63
			c0.15,0.04,0.3,0.09,0.46,0.14c-0.06-0.28-0.11-0.31-0.32-0.17C412.89,539.63,412.84,539.62,412.8,539.63z"/>
		<path d="M407.18,530.09c0.02,0.02,0.04,0.04,0.11,0.11c-0.04-0.16-0.07-0.26-0.12-0.42c-0.03,0-0.11,0-0.2,0
			c-0.01-0.06-0.03-0.14-0.05-0.23c0.04,0,0.07,0.01,0.15,0.02c-0.08-0.08-0.13-0.12-0.18-0.18c0.05,0,0.09,0,0.15,0
			c-0.02-0.09-0.04-0.17-0.07-0.31c-0.02,0.1-0.03,0.14-0.03,0.17c-0.06,0-0.11,0-0.21,0c0.02-0.09,0.04-0.18,0.05-0.28
			c0.02-0.01,0.04-0.01,0.07-0.02c-0.05-0.01-0.1-0.01-0.15-0.02c0.02-0.02,0.04-0.03,0.07-0.05c-0.03-0.1-0.07-0.19-0.1-0.29
			c-0.02-0.05-0.08-0.13-0.07-0.16c0.09-0.17,0.11-0.33-0.02-0.5c0.19-0.04,0.25,0.07,0.29,0.17c0.1,0.25,0.18,0.5,0.28,0.74
			c0.13,0.35,0.28,0.7,0.4,1.06c0.21,0.63,0.41,1.27,0.62,1.91c0.07,0.21,0.17,0.42,0.24,0.63c0.02,0.06,0,0.16-0.04,0.19
			c-0.11,0.09-0.23,0.14-0.38,0.23c-0.06-0.12-0.13-0.24-0.19-0.37c-0.01,0.05-0.02,0.09-0.04,0.18c-0.05-0.07-0.08-0.1-0.07-0.11
			c0.06-0.23-0.02-0.43-0.1-0.64c-0.02-0.06-0.01-0.13-0.03-0.19c-0.02-0.06-0.06-0.12-0.1-0.19
			C407.48,531.06,407.28,530.59,407.18,530.09z"/>
		<path d="M408.26,542.17c-0.02-0.12-0.03-0.24-0.05-0.36c-0.02-0.14-0.05-0.28-0.07-0.42c-0.01-0.1-0.01-0.16,0.12-0.22
			c0.21-0.09,0.38-0.25,0.57-0.38c0.24-0.16,0.48-0.32,0.73-0.47c0.1-0.06,0.21-0.09,0.33,0.01c0.13,0.11,0.28,0.19,0.45,0.31
			c-0.28,0.18-0.52,0.34-0.76,0.49c-0.22,0.14-0.45,0.27-0.67,0.42c-0.25,0.16-0.48,0.34-0.57,0.66
			C408.31,542.18,408.29,542.17,408.26,542.17z"/>
		<path d="M406.96,535.08c0.04-0.01,0.08-0.01,0.12-0.02c0.09-0.03,0.19-0.08,0.28-0.07c0.07,0.01,0.2,0.07,0.11,0.2
			c0.03,0.01,0.05,0.02,0.09,0.03c-0.01,0.05-0.03,0.11-0.04,0.15c0.54,0.54,1.16,0.93,1.9,1.24c-0.11,0.04-0.16,0.08-0.21,0.07
			c-0.76-0.18-1.51-0.39-2.11-0.92C406.9,535.59,406.83,535.25,406.96,535.08L406.96,535.08z"/>
		<path d="M410.86,536.84c-0.27-0.32-0.55-0.67-0.84-1.01c0.27-0.03,2.24,1.33,2.24,1.56c-0.13-0.1-0.29-0.1-0.42-0.2
			c-0.04-0.03-0.2,0-0.25-0.08c-0.09-0.18-0.27-0.22-0.41-0.31C411.12,536.75,410.99,536.82,410.86,536.84z"/>
		<path d="M400.1,570.28c0.08,0.1,0.14,0.24,0.3,0.2c0.04-0.01,0.11-0.1,0.1-0.12c-0.06-0.12-0.13-0.24-0.21-0.34
			c-0.03-0.03-0.09-0.04-0.16-0.06c0.01-0.05,0.03-0.1,0.04-0.14c0.12,0.11,0.24,0.2,0.35,0.3c0.11,0.1,0.17,0.47,0.11,0.61
			c-0.05,0.09-0.08,0.19-0.12,0.29c-0.03,0.1-0.05,0.2-0.07,0.3c-0.36-0.02-0.37-0.03-0.38-0.54c0.09,0.06,0.16,0.13,0.24,0.18
			c0.03,0.02,0.09,0.02,0.12,0c0.02-0.01,0.02-0.07,0.02-0.11c0-0.05,0.02-0.12,0-0.16c-0.03-0.06-0.1-0.14-0.15-0.14
			C400.04,570.55,400.01,570.52,400.1,570.28z"/>
		<path d="M409.1,534.16c-0.32,0.07-0.65-0.09-0.74-0.33c-0.02-0.05-0.01-0.14,0.03-0.17c0.15-0.09,0.31-0.17,0.45-0.24
			C408.92,533.68,409.01,533.91,409.1,534.16z"/>
		<path d="M416.82,542.16c-0.15-0.12-0.3-0.24-0.46-0.35c-0.16-0.11-0.33-0.2-0.49-0.3c-0.02,0.02-0.03,0.04-0.05,0.06
			c0.05,0.09,0.11,0.18,0.2,0.32c-0.19-0.07-0.34-0.12-0.48-0.18c0-0.01,0-0.03,0-0.04c0.07-0.01,0.14-0.02,0.22-0.04
			c-0.1-0.3-0.41-0.26-0.59-0.37c0.05-0.06,0.1-0.12,0.15-0.17c0.15,0.08,0.32,0.17,0.48,0.27c0.36,0.23,0.71,0.47,1.07,0.71
			C416.85,542.11,416.84,542.14,416.82,542.16z"/>
		<path d="M412.46,545.78c0.15,0.12,0.3,0.24,0.46,0.35c0.1,0.07,0.05,0.13-0.01,0.19c-0.2,0.19-0.5,0.11-0.55-0.16
			c-0.02-0.11,0.01-0.23,0.01-0.34C412.4,545.81,412.43,545.79,412.46,545.78z"/>
		<path d="M417.38,547.3c0.19,0.1,0.34,0.18,0.49,0.27c0.03,0.02,0.04,0.12,0.04,0.12c-0.13,0.05-0.27,0.14-0.41,0.13
			c-0.15,0-0.17-0.15-0.16-0.29C417.34,547.49,417.36,547.43,417.38,547.3z"/>
		<path d="M407.93,544.15c-0.31-0.03-0.44-0.26-0.3-0.59c0.08,0.02,0.15,0.05,0.25,0.08c0.01-0.08,0.02-0.13,0.03-0.2
			C408.01,543.68,408.03,543.91,407.93,544.15z"/>
		<path d="M419.74,547.72c0.21,0.07,0.4,0.13,0.59,0.2c-0.09,0.22-0.29,0.33-0.47,0.26C419.66,548.1,419.72,547.92,419.74,547.72z"
			/>
		<path d="M401.17,568.4c0.08,0.16,0.15,0.3,0.23,0.45c-0.05,0.04-0.13,0.1-0.19,0.15c-0.09-0.05-0.16-0.1-0.24-0.13
			c-0.13-0.06-0.16-0.18-0.06-0.27c0.05-0.05,0.1-0.09,0.15-0.13C401.09,568.45,401.13,568.43,401.17,568.4z"/>
		<path d="M422.91,548.18c-0.14,0.14-0.31,0.19-0.47,0.1c-0.08-0.05-0.08-0.2-0.14-0.35C422.57,547.96,422.79,547.91,422.91,548.18z
			"/>
		<path d="M412.88,540.71c-0.45-0.24-0.9-0.49-1.35-0.73c0.52,0.09,0.91,0.47,1.39,0.64C412.91,540.64,412.89,540.67,412.88,540.71z
			"/>
		<path d="M432.21,558.94c0.56,0.25,1.01,0.56,1.38,0.99C433.14,559.61,432.7,559.29,432.21,558.94z"/>
		<path d="M421.34,566.15c-0.06,0.12-0.13,0.25-0.19,0.37c0-0.15,0.05-0.34-0.23-0.21c-0.05,0.02-0.15-0.09-0.23-0.14
			c0.04-0.09,0.07-0.16,0.11-0.26c0.08,0.09,0.14,0.15,0.2,0.22C421.11,566.27,421.22,566.31,421.34,566.15z"/>
		<path d="M421.49,565.88c-0.05,0.08-0.1,0.17-0.15,0.25c-0.05-0.11-0.09-0.25-0.27-0.14c-0.03,0.02-0.16-0.08-0.18-0.15
			c-0.02-0.07,0.02-0.16,0.04-0.25C421.14,565.7,421.16,566.08,421.49,565.88z"/>
		<path d="M401.05,573.09c-0.06-0.12-0.1-0.26-0.19-0.36c-0.06-0.06-0.19-0.05-0.32-0.08c0.17-0.03,0.31-0.05,0.51-0.09
			c0.01,0.1,0.01,0.21,0.02,0.31C401.06,572.95,401.05,573.02,401.05,573.09C401.04,573.09,401.05,573.09,401.05,573.09z"/>
		<path d="M402.37,574.35c0.3,0.18,0.58,0.34,0.87,0.51C403.05,574.95,402.59,574.67,402.37,574.35z"/>
		<path d="M421.71,565.59c-0.05,0.07-0.1,0.14-0.15,0.21c-0.04-0.13-0.05-0.28-0.26-0.25c-0.05,0.01-0.15-0.09-0.16-0.15
			c-0.01-0.07,0.07-0.14,0.11-0.22c0.09,0.14,0.15,0.26,0.24,0.35C421.55,565.57,421.64,565.57,421.71,565.59z"/>
		<path d="M425.1,547.94c0.15-0.03,0.24-0.06,0.34-0.06c0.08,0,0.17,0.03,0.27,0.05c-0.15,0.17-0.32,0.19-0.49,0.15
			C425.17,548.06,425.14,547.98,425.1,547.94z"/>
		<path d="M407.79,536.88c-0.4-0.1-0.63-0.41-0.89-0.69C407.2,536.41,407.49,536.64,407.79,536.88z"/>
		<path d="M408.53,538.08c-0.28-0.23-0.55-0.46-0.83-0.68c0.03-0.03,0.05-0.06,0.08-0.09C408.03,537.57,408.27,537.83,408.53,538.08
			L408.53,538.08z"/>
		<path d="M416.61,539.9c-0.31-0.08-0.61-0.15-0.89-0.3c0.01-0.02,0.01-0.04,0.02-0.06c0.3,0.1,0.59,0.2,0.89,0.3
			C416.62,539.86,416.62,539.88,416.61,539.9z"/>
		<path d="M400.4,569.26c0.14,0.12,0.25,0.22,0.39,0.34c0.01-0.01-0.01,0.02-0.05,0.05c-0.12-0.07-0.25-0.15-0.38-0.24
			C400.34,569.4,400.38,569.31,400.4,569.26z"/>
		<path d="M405.59,542.16c0.08,0.16,0.16,0.31,0.24,0.48C405.57,542.57,405.48,542.42,405.59,542.16z"/>
		<path d="M401.88,568.07c0.04,0.17,0.08,0.32,0.12,0.48c-0.03,0.01-0.08,0.03-0.15,0.05c0.15-0.12,0.07-0.17-0.02-0.25
			c-0.05-0.05-0.07-0.13-0.07-0.2C401.76,568.13,401.84,568.1,401.88,568.07z"/>
		<path d="M402.18,568.52c0.32-0.18-0.05-0.32,0-0.47c0.07-0.01,0.07-0.01,0.26,0.43C402.35,568.49,402.27,568.5,402.18,568.52z"/>
		<path d="M408.12,541.54c-0.02,0.2-0.04,0.39-0.06,0.59C407.91,541.91,407.98,541.72,408.12,541.54z"/>
		<path d="M401.66,568.68c-0.06-0.09-0.12-0.19-0.18-0.28c-0.03-0.04-0.08-0.08-0.07-0.12c0.01-0.03,0.07-0.06,0.1-0.08
			c0.06,0.18,0.12,0.33,0.18,0.49C401.67,568.69,401.66,568.68,401.66,568.68z"/>
		<path d="M400.48,569.82c-0.05,0-0.12,0.01-0.16-0.01c-0.12-0.07-0.13-0.17-0.02-0.3c0.07,0.09,0.13,0.17,0.2,0.25
			C400.49,569.78,400.48,569.8,400.48,569.82z"/>
		<path d="M408.52,538.09c0.23,0.16,0.45,0.32,0.68,0.48c-0.02,0.02-0.04,0.05-0.05,0.07C408.94,538.45,408.73,538.26,408.52,538.09
			C408.53,538.08,408.52,538.09,408.52,538.09z"/>
		<path d="M406.43,535.46c-0.15-0.21-0.13-0.36,0.04-0.49C406.46,535.13,406.44,535.28,406.43,535.46z"/>
		<path d="M414.88,541.19c-0.21,0.05-0.42,0.15-0.68-0.02C414.45,541.18,414.67,541.18,414.88,541.19z"/>
		<path d="M402.57,567.99c0.04,0.17,0.08,0.32,0.13,0.5c-0.04-0.03-0.09-0.05-0.1-0.09C402.48,568.09,402.49,568.09,402.57,567.99z"
			/>
		<path d="M400.64,568.85c0.08,0.14,0.13,0.23,0.17,0.31c-0.01,0.01-0.02,0.03-0.03,0.04c-0.07-0.05-0.16-0.08-0.21-0.14
			C400.55,569.04,400.6,568.96,400.64,568.85z"/>
		<path d="M432.79,568.02c0.26-0.09,0.52-0.19,0.78-0.28c0,0.01,0.01,0.02,0.01,0.03c-0.26,0.09-0.52,0.19-0.78,0.28
			C432.8,568.04,432.79,568.03,432.79,568.02z"/>
		<path d="M406.96,535.08c-0.08-0.07-0.17-0.14-0.28-0.23c0.05-0.02,0.11-0.04,0.19-0.07C406.91,534.91,406.93,535,406.96,535.08
			C406.96,535.08,406.96,535.08,406.96,535.08z"/>
		<path d="M409.46,565.37c-0.05-0.08-0.11-0.15-0.14-0.23c-0.02-0.05,0.01-0.16,0.03-0.16c0.06-0.01,0.15,0,0.19,0.04
			c0.07,0.07,0.1,0.16,0.16,0.26C409.61,565.31,409.53,565.34,409.46,565.37C409.45,565.37,409.46,565.37,409.46,565.37z"/>
		<path d="M415.56,546.96c-0.07,0.24-0.26,0.35-0.47,0.29c-0.19-0.05-0.24-0.23-0.15-0.55
			C415.15,546.79,415.35,546.87,415.56,546.96z"/>
		<path d="M410.05,544.79c0.2,0.14,0.38,0.27,0.56,0.4c0,0.17-0.12,0.27-0.25,0.28c-0.11,0-0.26-0.06-0.34-0.14
			C409.9,545.18,409.91,545,410.05,544.79z"/>
		<path d="M426.77,566.47c0.12,0.15,0.24,0.3,0.35,0.45c0.41,0.58,0.42,1.34,0.04,1.84c-0.45,0.58-1.23,0.53-1.71,0.27
			c-0.01,0-0.01-0.02-0.02-0.05c0.55,0.03,0.93-0.19,1-0.77c0.05-0.41-0.16-0.8-0.52-0.96c0.01,0.04,0.01,0.07,0.02,0.16
			c-0.34-0.45-0.72-0.52-1.11-0.19c-0.38,0.32-0.37,0.72-0.19,1.15c-0.33-0.54-0.49-1.1-0.23-1.71c0.2-0.45,0.57-0.67,1.05-0.69
			c0.43-0.02,0.81,0.13,1.14,0.39C426.65,566.4,426.71,566.43,426.77,566.47C426.77,566.47,426.77,566.47,426.77,566.47z
			 M426.43,567.67c0.03-0.32-0.05-0.5-0.24-0.57c-0.04-0.01-0.09,0-0.13,0c0,0.04-0.01,0.08,0.01,0.11
			C426.19,567.36,426.3,567.51,426.43,567.67z M426.55,567.92c-0.03,0.22-0.06,0.41-0.09,0.61
			C426.69,568.38,426.72,568.24,426.55,567.92z"/>
		<path d="M427.51,568.52c-0.09,0.44-0.3,0.79-0.66,1.02c-0.49,0.3-1.02,0.31-1.55,0.13c-0.92-0.31-1.61-1.25-1.65-2.21
			c-0.04-0.84,0.52-1.51,1.36-1.63c0.04-0.01,0.09,0,0.14,0.02c-0.12,0.05-0.24,0.09-0.34,0.15c-0.47,0.27-0.7,0.69-0.66,1.23
			c0.05,0.74,0.38,1.38,0.99,1.78c0.82,0.54,1.85,0.5,2.32-0.48C427.47,568.53,427.48,568.53,427.51,568.52z"/>
		<path d="M424.72,567.85c0.05-0.44,0.31-0.62,0.7-0.55c0.51,0.1,0.74,0.54,0.71,0.99c-0.02,0.27-0.28,0.47-0.54,0.43
			c0.11-0.1,0.23-0.19,0.33-0.29c0.11-0.12,0.14-0.42,0.04-0.52c-0.09-0.09-0.21-0.14-0.3-0.22c-0.05-0.04-0.07-0.11-0.1-0.18
			c-0.06-0.19-0.29-0.22-0.46-0.06C424.98,567.57,424.86,567.7,424.72,567.85z"/>
		<path d="M426.23,564.01c-0.26-0.1-0.51-0.2-0.76-0.29c-0.01-0.04-0.02-0.05-0.02-0.07c0.07-0.38,0.07-0.38,0.47-0.33
			c0.16,0.02,0.31,0.06,0.46,0.1c0.13,0.04,0.14,0.1,0.06,0.22C426.36,563.75,426.3,563.89,426.23,564.01
			C426.23,564.01,426.23,564.01,426.23,564.01z"/>
		<path d="M401.76,560.13c0.07,0.05,0.14,0.1,0.23,0.16c-0.04,0.06-0.08,0.11-0.14,0.19c-0.04-0.12-0.08-0.23-0.12-0.33
			C401.73,560.14,401.75,560.14,401.76,560.13z"/>
		<path d="M404.47,572.1c0.06-0.07,0.11-0.13,0.17-0.19c0.01,0.01,0.01,0.03,0.02,0.04c0.05-0.01,0.12,0,0.13-0.03
			c0.04-0.09,0.1-0.2,0.08-0.27c-0.05-0.17-0.15-0.32-0.19-0.5c0.08,0.13,0.16,0.26,0.24,0.39c0.01,0,0.02-0.01,0.03-0.01
			c-0.07-0.13-0.13-0.27-0.22-0.38c-0.26-0.36-0.41-0.37-0.73-0.06c-0.03,0.02-0.06,0.04-0.09,0.06c-0.02-0.01-0.04-0.03-0.05-0.04
			c0.07-0.09,0.12-0.2,0.21-0.26c0.2-0.13,0.47-0.08,0.65,0.09c0.21,0.21,0.39,0.44,0.35,0.76
			C405.01,572,404.75,572.19,404.47,572.1z"/>
		<path d="M427.47,566.98c-0.03-0.04-0.06-0.07-0.08-0.11c-0.05-0.08-0.1-0.15-0.17-0.25c0.05-0.01,0.11-0.04,0.12-0.03
			c0.07,0.12,0.13,0.24,0.2,0.36C427.51,566.96,427.49,566.97,427.47,566.98z"/>
	</g>
</g>
<g>
	<polygon class="st1" points="428.88,481.17 419.28,469.51 417.03,466.71 417.69,461.6 420.14,451.97 417.73,447.05 389.98,461.98 
		388.3,463.71 386.81,467.64 384.29,475.84 432.64,490.1 	"/>
	<g>
		<circle class="st8" cx="434.31" cy="501.5" r="8.22"/>
		<circle class="st9" cx="434.31" cy="501.5" r="4.47"/>
		<circle class="st8" cx="417.83" cy="497.3" r="8.22"/>
		<circle class="st9" cx="417.83" cy="497.3" r="4.47"/>
		<circle class="st8" cx="401.35" cy="493.1" r="8.22"/>
		<circle class="st9" cx="401.35" cy="493.1" r="4.47"/>
		<circle class="st8" cx="384.87" cy="488.9" r="8.22"/>
		<circle class="st9" cx="384.87" cy="488.9" r="4.47"/>
		<path class="st10" d="M396.98,481.07l-5.94-0.91c-1.8-1.68-3.13-2.92-3.14-2.92c-0.02-0.02-0.71,0.68-0.71,0.68
			c-0.41,0.39,0.41,1.01,0.31,2.01c-0.1,0.99-1,1.62-2.1,2.78c-1.1,1.16-2.32,2.3-2.88,2.82c-0.56,0.52-1.03,1.3-0.69,2.4
			c0.34,1.1,0.6,1.64,1.94,2.1c1.34,0.46,2.88-0.48,3.99-0.7c1.11-0.22,2.98-0.33,5.75,0.26s4.01,1.29,4.78,2.23
			c0.78,0.94,0.95,2.47,2.41,2.72c1.46,0.25,1.42-0.26,2.67-0.88c1.25-0.62,4.02-0.69,6.08-0.17c2.05,0.52,4.28,1.36,5.24,2.66
			c0.96,1.3,1.14,2.44,2.51,2.7s0.75-0.07,2.82-0.87c1.47-0.57,2.7-0.72,5.8,0c3.1,0.71,6.29,3.83,6.99,4.59
			c0.7,0.77,2.28,1.01,2.9,0.74c0.62-0.27,1.81-1.3,1.98-1.96c0.17-0.66-0.03-1.1-0.03-1.1l-3.51-9.2l-2.27,0.5l-5.56-1.8
			l-5.63,3.05l-20.3-5.73c0,0-1.99-0.33-2.73-5.53L396.98,481.07z"/>
		<path class="st11" d="M414.76,445.64c0,0,5.52,0.38,5.8,1.23c0.28,0.85,0.44,1.3-0.71,6.74"/>
		<path class="st11" d="M423.29,491.9c-1.82,0-15.83-5.08-20.28-6.6s-17.11-4.75-17.11-4.75s-3.5-0.97-2.17-6.17
			c0,0,8.13,1.56,36.84,10.91"/>
		<path class="st11" d="M386.96,467.39c0.11-0.31,1.74-4.89,1.74-4.89l3.75-8.09c0,0,0.87-1.37,1.47-2.6
			c0.6-1.23,1.17-2.44,2.01-3.19c0.84-0.75,1.46-0.93,3.14-3.15c1.68-2.22,2.74-3.25,4.08-3.69c1.34-0.44,2.68-0.2,4.99,0.54
			c2.31,0.74,5.36,2.43,6.46,3.21c1.1,0.77,3.56,2.5,1.99,6.36"/>
		<path class="st11" d="M406.8,454.5l1.81-6.17l-4.61-1.17c0,0-2.1,0.13-2.82,2.48s0.79,3.34,0.79,3.34L406.8,454.5z"/>
		<path class="st11" d="M408.83,448.39c0.05,0.01,9.91,3.94,12.69,6.42l-1.75,5.58c0,0-5.95-3.41-13.09-5.92L408.83,448.39z"/>
		<path class="st11" d="M418.34,468.16l5.7,6.54l-2.4,1.34c0,0-2.22-2.2-3.31-3c-1.1-0.8-4.34-3.38-4.34-3.38"/>
		<path class="st12" d="M411.46,464.86c0,0-3.33-1.78-2.81-3.07s3.19-1.79,3.19-1.79s3.53-1.04,2.12-2.61"/>
		<path class="st12" d="M418.33,459.52l-0.69,2.73c0,0-1.37,3.71,0.6,6.03"/>
		<line class="st13" x1="417.72" y1="470.22" x2="419.27" y2="468.4"/>
		<line class="st13" x1="420.9" y1="473.45" x2="421.94" y2="471.79"/>
		<line class="st13" x1="424.33" y1="476.91" x2="425.19" y2="475.28"/>
		<line class="st13" x1="427.04" y1="479.44" x2="427.66" y2="478.64"/>
		<polygon class="st14" points="389.65,459.78 397.72,466.32 390.06,467.48 386.9,467.62 387.89,464.77 389.06,461.73 		"/>
		<path class="st14" d="M428.56,480.28c-0.02-0.24,11.69,6.25,11.69,6.25s1.67,1.92,1.14,2.71c-0.53,0.78-0.08,0.07-0.08,0.07
			l-14.12-3.66C427.19,485.65,428.63,481.15,428.56,480.28z"/>
		<path class="st11" d="M426.23,485.41c0,0,5.66,1.39,15.15,3.82c0,0,1.02,0.57,0.21,2.86s-1.72,3.38-4.08,2.86
			c-2.36-0.52-15.6-2.73-20.43-5.21c0,0,1.22-1.8,2.14-3.2c0,0,1.2-1.44,2.25-1.79C422.52,484.4,426.23,485.41,426.23,485.41z"/>
		<circle class="st14" cx="399.8" cy="461.14" r="2.19"/>
		<line class="st13" x1="415.51" y1="465.9" x2="417.9" y2="464.99"/>
		<line class="st13" x1="415.23" y1="461.08" x2="418.12" y2="461.6"/>
		<path class="st14" d="M402.85,479.68c0,0-0.41-1.64,0.22-3.09c0.63-1.45,1.53-1.91,1.53-1.91s4.38,3.6,7.91,4.46
			c3.52,0.86,7.04-1.93,7.04-1.93l4.48-2.5l4.52,5.58l-1.17,5.14l-2.82-0.43l-2.76-0.44l-1.24,0.74"/>
		<path class="st14" d="M384.62,474.78l2.03-7.17c0,0,3.29,0.14,8.99-0.91c5.7-1.04,13.5-2.52,14.64-2.2
			c3.49,0.96,4.12,4.12,3.55,5.21l-9.22,4.95l-0.66,4.85"/>
	</g>
</g>
</svg>
