<svg xmlns="http://www.w3.org/2000/svg" viewBox="0 0 1277 450.74"><path d="M1037.37,250l-72,16.72Q953,223,905.42,223q-22.12,0-35.11,10.53t-13,25.43q0,14.9,10.55,22.6t40.38,15.16q42.94,10.8,67.65,22.75t37.94,33.41q13.23,21.47,13.24,52.31,0,49.6-36.52,82.89T886.64,521.35q-57.61,0-95.81-26.62t-47.46-80.12l75.11-10.29q11.58,52.21,71.25,52.22,27,0,41.41-11.55t14.41-29.24q0-16.92-10.95-24.49t-50.8-18.42q-36.25-9.55-57.73-21.13a87.78,87.78,0,0,1-34.21-32.77q-12.74-21.19-12.73-48.45,0-44.46,33.69-78.39t92.86-33.93Q1007.53,158.17,1037.37,250Z" transform="translate(-36 -158.17)" style="fill:#07afb1"/><path d="M139.2,514.92l58.64-351.09h103.4q54.52,0,84.75,17.1t50.55,54.79q20.31,37.68,20.31,88.35,0,47.32-17.23,88.35t-45.78,65.72q-28.56,24.69-57.49,31.13t-74.46,6.43Zm87.63-62.5H269q63.83,0,84.67-42.57a204.53,204.53,0,0,0,20.85-91.18q0-92.85-73.85-92.85h-36Z" transform="translate(-36 -158.17)" style="fill:#07afb1"/><rect y="346.53" width="1273.72" height="104.21" style="fill:#07afb1"/><path d="M91.85,526.09h11.28q10.73,0,16.43,2.81a21.82,21.82,0,0,1,9.22,8.72,25.86,25.86,0,0,1,3.5,13.45,29.3,29.3,0,0,1-4,14.92,24.41,24.41,0,0,1-9.75,9.84q-5.79,3-17.26,3H84.71Zm4.54,5.09-5.75,42.51h4.62a109.52,109.52,0,0,0,14.16-.57,21.23,21.23,0,0,0,8.92-3.39,20.14,20.14,0,0,0,6.2-7.56,23.75,23.75,0,0,0,2.58-11,20.4,20.4,0,0,0-2.91-11,18,18,0,0,0-8-7q-4.32-2-14.6-2Z" transform="translate(-36 -158.17)" style="fill:#fff"/><path d="M190.5,560.32H155.73q-.1,7,3.62,10.94a13,13,0,0,0,9.93,4,17.44,17.44,0,0,0,7.63-1.69,15.52,15.52,0,0,0,5.81-4.73l3.73,3a20.23,20.23,0,0,1-7.4,5.78,22.7,22.7,0,0,1-9.88,2.17q-9.18,0-13.78-5.68a19.79,19.79,0,0,1-4.61-12.78,22.65,22.65,0,0,1,22.66-22.54,16.53,16.53,0,0,1,12.4,5.07,17.83,17.83,0,0,1,4.91,12.92A29.32,29.32,0,0,1,190.5,560.32ZM185.91,556a12.55,12.55,0,0,0-3.76-8.92,12.39,12.39,0,0,0-8.93-3.41,16.91,16.91,0,0,0-10.3,3.29,17.55,17.55,0,0,0-6.33,9Z" transform="translate(-36 -158.17)" style="fill:#fff"/><path d="M214.17,539.82H219l-.8,6.07q5.94-7.08,13.84-7.07a13.24,13.24,0,0,1,9.77,3.7q3.71,3.72,3.71,10a73.19,73.19,0,0,1-.8,8.43l-2.42,17.89h-4.92l2.42-17.89a69.18,69.18,0,0,0,.77-8.47,9,9,0,0,0-2.48-6.61,8.75,8.75,0,0,0-6.51-2.52,14,14,0,0,0-7.37,2,14.15,14.15,0,0,0-5.27,5.53q-1.87,3.5-2.87,11.06l-2.23,16.85H208.9Z" transform="translate(-36 -158.17)" style="fill:#fff"/><path d="M265.22,539.82h5.15l9.85,28.46,16.4-28.46h5.45l-22.48,39h-.93Z" transform="translate(-36 -158.17)" style="fill:#fff"/><path d="M356.7,560.32H321.93q-.1,7,3.62,10.94a13,13,0,0,0,9.93,4,17.51,17.51,0,0,0,7.64-1.69,15.57,15.57,0,0,0,5.8-4.73l3.73,3a20.14,20.14,0,0,1-7.4,5.78,22.7,22.7,0,0,1-9.88,2.17q-9.18,0-13.78-5.68A19.79,19.79,0,0,1,317,561.36a22.65,22.65,0,0,1,22.66-22.54,16.53,16.53,0,0,1,12.4,5.07A17.79,17.79,0,0,1,357,556.81,29.32,29.32,0,0,1,356.7,560.32ZM352.11,556a12.55,12.55,0,0,0-3.76-8.92,12.39,12.39,0,0,0-8.93-3.41,16.91,16.91,0,0,0-10.3,3.29,17.55,17.55,0,0,0-6.33,9Z" transform="translate(-36 -158.17)" style="fill:#fff"/><path d="M378.37,539.82h5l-.68,4.91a14.57,14.57,0,0,1,4.85-4.36,12,12,0,0,1,5.81-1.55,11,11,0,0,1,4.42,1l-2.37,4.59a8.7,8.7,0,0,0-3.11-.75,8.8,8.8,0,0,0-5.17,1.82,12.92,12.92,0,0,0-4.15,5.33c-1.07,2.33-2,6.16-2.7,11.49L378,578.82h-4.92Z" transform="translate(-36 -158.17)" style="fill:#fff"/><path d="M446.62,526.09h5.2l-4.17,30.18a73.15,73.15,0,0,0-.83,8.57q0,4.95,2.77,7.62c1.85,1.78,4.45,2.67,7.82,2.67a15.33,15.33,0,0,0,6.28-1.22,13,13,0,0,0,4.69-3.53,13.94,13.94,0,0,0,2.78-5.36,102.92,102.92,0,0,0,2.47-13.37L477,526.09h5.2l-3.61,26.63-.86,6.53A53.28,53.28,0,0,1,476,567a22.45,22.45,0,0,1-2.7,5.68,16.22,16.22,0,0,1-3.79,4,16.57,16.57,0,0,1-5.15,2.49,23.41,23.41,0,0,1-6.78.92q-7.68,0-11.86-3.95a13.72,13.72,0,0,1-4.17-10.46c0-1.22.08-2.58.23-4.09l.83-6.16Z" transform="translate(-36 -158.17)" style="fill:#fff"/><path d="M501.87,539.82h5l-.68,4.91a14.57,14.57,0,0,1,4.85-4.36,12,12,0,0,1,5.81-1.55,11,11,0,0,1,4.42,1l-2.37,4.59a8.7,8.7,0,0,0-3.11-.75,8.8,8.8,0,0,0-5.17,1.82,12.92,12.92,0,0,0-4.15,5.33q-1.61,3.5-2.7,11.49l-2.28,16.52H496.6Z" transform="translate(-36 -158.17)" style="fill:#fff"/><path d="M539.66,524.76h5.09l-2.8,21q6.84-6.9,15.5-6.9a17.55,17.55,0,0,1,13,5.12,17.94,17.94,0,0,1,5.08,13.19,21.92,21.92,0,0,1-6.62,16,21.27,21.27,0,0,1-15.62,6.68,16.2,16.2,0,0,1-14.87-8.46l-.92,7.46h-5.2Zm17.19,18.64a17.41,17.41,0,0,0-8.79,2.28,16.39,16.39,0,0,0-6.32,6.54,19.11,19.11,0,0,0-2.32,9.29,13.25,13.25,0,0,0,3.84,9.85,13.53,13.53,0,0,0,9.94,3.8A16.67,16.67,0,0,0,565.51,570a17.51,17.51,0,0,0,5.12-12.77,13.08,13.08,0,0,0-13.78-13.8Z" transform="translate(-36 -158.17)" style="fill:#fff"/><path d="M631.36,578.82H626.3l.77-5.86q-6.75,6.85-15.47,6.86a17.65,17.65,0,0,1-13-5.12,17.92,17.92,0,0,1-5.1-13.19,21.91,21.91,0,0,1,6.65-16,21.38,21.38,0,0,1,15.67-6.68,17.33,17.33,0,0,1,8.55,2,16.38,16.38,0,0,1,6.19,6.37l.9-7.41h5.2Zm-19.2-3.58A17.3,17.3,0,0,0,621,573a16.33,16.33,0,0,0,6.28-6.55,19.11,19.11,0,0,0,2.32-9.29,13.26,13.26,0,0,0-3.82-9.85,13.45,13.45,0,0,0-9.92-3.79,16.63,16.63,0,0,0-12.29,5.19,17.53,17.53,0,0,0-5.1,12.76,13.08,13.08,0,0,0,13.74,13.81Z" transform="translate(-36 -158.17)" style="fill:#fff"/><path d="M659.22,539.82H664l-.8,6.07q5.94-7.08,13.84-7.07a13.24,13.24,0,0,1,9.77,3.7q3.7,3.72,3.71,10a73.19,73.19,0,0,1-.8,8.43l-2.42,17.89h-4.92l2.42-17.89a69.18,69.18,0,0,0,.77-8.47,9,9,0,0,0-2.48-6.61,8.73,8.73,0,0,0-6.51-2.52,14,14,0,0,0-7.37,2,14.15,14.15,0,0,0-5.27,5.53q-1.87,3.5-2.87,11.06l-2.23,16.85H654Z" transform="translate(-36 -158.17)" style="fill:#fff"/><path d="M772.83,535.84l-5,1.25a10.78,10.78,0,0,0-3.29-5.26,7.54,7.54,0,0,0-4.95-1.94,6.23,6.23,0,0,0-4.79,2A7.52,7.52,0,0,0,753,537.2a11.62,11.62,0,0,0,2,6.13,35.32,35.32,0,0,0,5.88,6.24,30,30,0,0,1,6.75,8.15,16.32,16.32,0,0,1,1.92,7.41,14.32,14.32,0,0,1-2.1,7.38,15.27,15.27,0,0,1-5.64,5.59,14.91,14.91,0,0,1-7.53,2,12.91,12.91,0,0,1-8.76-3.23q-3.72-3.23-5.33-9.46l4.88-1.65a13.3,13.3,0,0,0,3.73,7,8.69,8.69,0,0,0,6,2.3,8.92,8.92,0,0,0,6.59-2.83,9.63,9.63,0,0,0,2.76-7,12.39,12.39,0,0,0-1.56-5.95,28.46,28.46,0,0,0-6.11-7,39.18,39.18,0,0,1-6.34-6.81,15.79,15.79,0,0,1-2.41-8.32,12.13,12.13,0,0,1,3.54-9,11.9,11.9,0,0,1,8.76-3.53,12.12,12.12,0,0,1,7.85,2.8A16.22,16.22,0,0,1,772.83,535.84Z" transform="translate(-36 -158.17)" style="fill:#fff"/><path d="M795.88,524.76h4.87l-3.93,29.61,18.91-14.55h7.81L800.9,557.24l20,21.58h-6.7l-18.06-19.48-2.51,19.48h-5Z" transform="translate(-36 -158.17)" style="fill:#fff"/><path d="M875.07,578.82H870l.78-5.86q-6.76,6.85-15.47,6.86a17.62,17.62,0,0,1-13-5.12,17.88,17.88,0,0,1-5.11-13.19,21.88,21.88,0,0,1,6.66-16,21.36,21.36,0,0,1,15.66-6.68,17.4,17.4,0,0,1,8.56,2,16.43,16.43,0,0,1,6.18,6.37l.9-7.41h5.21Zm-19.19-3.58a17.29,17.29,0,0,0,8.78-2.28,16.42,16.42,0,0,0,6.29-6.55,19.22,19.22,0,0,0,2.32-9.29,13.3,13.3,0,0,0-3.82-9.85,13.49,13.49,0,0,0-9.93-3.79,16.59,16.59,0,0,0-12.28,5.19,17.5,17.5,0,0,0-5.11,12.76,13.08,13.08,0,0,0,13.75,13.81Z" transform="translate(-36 -158.17)" style="fill:#fff"/><path d="M909.1,525.23H914l-1.94,14.59h7.85l-.57,4.37h-7.86l-4.62,34.63h-5l4.69-34.63h-6.69l.61-4.37h6.67Z" transform="translate(-36 -158.17)" style="fill:#fff"/><path d="M973.87,560.32H939.11q-.12,7,3.61,10.94a13,13,0,0,0,9.93,4,17.48,17.48,0,0,0,7.64-1.69,15.6,15.6,0,0,0,5.81-4.73l3.73,3a20.18,20.18,0,0,1-7.41,5.78,22.66,22.66,0,0,1-9.87,2.17q-9.18,0-13.78-5.68a19.73,19.73,0,0,1-4.61-12.78,22.65,22.65,0,0,1,22.65-22.54,16.55,16.55,0,0,1,12.41,5.07,17.83,17.83,0,0,1,4.91,12.92A29.59,29.59,0,0,1,973.87,560.32ZM969.29,556a12.56,12.56,0,0,0-3.77-8.92,12.36,12.36,0,0,0-8.92-3.41,16.94,16.94,0,0,0-10.31,3.29,17.59,17.59,0,0,0-6.32,9Z" transform="translate(-36 -158.17)" style="fill:#fff"/><path d="M1024.75,526.09h31.51l-.68,5H1042.3l-6.46,47.75h-5.32l6.46-47.75h-12.91Z" transform="translate(-36 -158.17)" style="fill:#fff"/><path d="M1069.14,539.82h5l-.68,4.91a14.57,14.57,0,0,1,4.85-4.36,12,12,0,0,1,5.81-1.55,11,11,0,0,1,4.42,1l-2.37,4.59a8.7,8.7,0,0,0-3.11-.75,8.8,8.8,0,0,0-5.17,1.82,13,13,0,0,0-4.16,5.33q-1.59,3.5-2.69,11.49l-2.28,16.52h-4.92Z" transform="translate(-36 -158.17)" style="fill:#fff"/><path d="M1121.87,538.82a18,18,0,0,1,9.14,2.38,16.76,16.76,0,0,1,6.49,6.63,19.61,19.61,0,0,1,2.33,9.63,22.74,22.74,0,0,1-3,11.38,21.23,21.23,0,0,1-8,8.12,22.48,22.48,0,0,1-11.36,2.86,17.37,17.37,0,0,1-12.92-5.14,17.89,17.89,0,0,1-5.07-13.1,23,23,0,0,1,3-11.51,21.58,21.58,0,0,1,8.16-8.26A22,22,0,0,1,1121.87,538.82Zm-.12,4.76a17.53,17.53,0,0,0-8.77,2.33,16.08,16.08,0,0,0-6.32,6.4,18.55,18.55,0,0,0-2.21,9,13.64,13.64,0,0,0,3.81,10,13.19,13.19,0,0,0,9.83,3.85,16.43,16.43,0,0,0,8.52-2.24,16.07,16.07,0,0,0,6.09-6.47,19,19,0,0,0,2.26-9.07,14.85,14.85,0,0,0-1.69-7.18,12,12,0,0,0-4.77-4.88A13.52,13.52,0,0,0,1121.75,543.58Z" transform="translate(-36 -158.17)" style="fill:#fff"/><path d="M1181,538.82a18,18,0,0,1,9.14,2.38,16.76,16.76,0,0,1,6.49,6.63,19.61,19.61,0,0,1,2.33,9.63,22.74,22.74,0,0,1-3,11.38,21.23,21.23,0,0,1-8,8.12,22.48,22.48,0,0,1-11.36,2.86,17.37,17.37,0,0,1-12.92-5.14,17.89,17.89,0,0,1-5.07-13.1,23,23,0,0,1,3-11.51,21.58,21.58,0,0,1,8.16-8.26A22,22,0,0,1,1181,538.82Zm-.12,4.76a17.53,17.53,0,0,0-8.77,2.33,16.08,16.08,0,0,0-6.32,6.4,18.55,18.55,0,0,0-2.21,9,13.64,13.64,0,0,0,3.81,10,13.19,13.19,0,0,0,9.83,3.85,16.43,16.43,0,0,0,8.52-2.24,16.07,16.07,0,0,0,6.09-6.47,19,19,0,0,0,2.26-9.07,14.85,14.85,0,0,0-1.69-7.18,12,12,0,0,0-4.77-4.88A13.52,13.52,0,0,0,1180.83,543.58Z" transform="translate(-36 -158.17)" style="fill:#fff"/><path d="M1223.09,539.82h5.09l-.78,5.86q6.75-6.87,15.44-6.86a17.62,17.62,0,0,1,13.07,5.12,17.92,17.92,0,0,1,5.1,13.19,22,22,0,0,1-6.62,16,21.23,21.23,0,0,1-15.6,6.68,17.12,17.12,0,0,1-8.55-2.06,16.94,16.94,0,0,1-6.26-6.39l-2.9,21.72h-5.2Zm19.19,3.58a17.37,17.37,0,0,0-8.78,2.28,16.39,16.39,0,0,0-6.32,6.54,19.1,19.1,0,0,0-2.32,9.28,13.26,13.26,0,0,0,3.84,9.86,13.52,13.52,0,0,0,9.93,3.8,16.66,16.66,0,0,0,12.31-5.19,17.51,17.51,0,0,0,5.12-12.77,13.06,13.06,0,0,0-13.78-13.8Z" transform="translate(-36 -158.17)" style="fill:#fff"/><path d="M1301.69,230.45h-88.41L1165.7,514.92h-80.85l47.59-284.47H1044L1055,163.83h258Z" transform="translate(-36 -158.17)" style="fill:#07afb1"/><path d="M776.77,163.83l-32.67,196Q734.32,416.91,728,437t-22.75,39.23q-16.46,19.17-45.52,30.48T590.59,518q-64,0-97.07-28.29t-33-73.05a226.34,226.34,0,0,1,3.08-35l36.53-217.86h86.33l-34.11,205a233.75,233.75,0,0,0-3.6,37.81q0,24.94,17.36,34.85a76.23,76.23,0,0,0,38.45,9.9q24.18,0,39.22-9.64t19-22.64q4-13,13.25-68.54L707.4,163.83Z" transform="translate(-36 -158.17)" style="fill:#07afb1"/></svg>